<?xml version="1.0" encoding="UTF-8" standalone="no"?>
<!-- Created with Inkscape (http://www.inkscape.org/) -->

<svg
   xmlns:dc="http://purl.org/dc/elements/1.1/"
   xmlns:cc="http://creativecommons.org/ns#"
   xmlns:rdf="http://www.w3.org/1999/02/22-rdf-syntax-ns#"
   xmlns:svg="http://www.w3.org/2000/svg"
   xmlns="http://www.w3.org/2000/svg"
   xmlns:xlink="http://www.w3.org/1999/xlink"
   xmlns:sodipodi="http://sodipodi.sourceforge.net/DTD/sodipodi-0.dtd"
   xmlns:inkscape="http://www.inkscape.org/namespaces/inkscape"
   width="406"
   height="348.51099"
   viewBox="0 0 405.99999 348.51098"
   id="svg2"
   version="1.1"
   inkscape:version="0.91 r13725"
   sodipodi:docname="emaprLogoFit5buffer.svg"
   inkscape:export-filename="C:\Users\ohmsh\Documents\justin_fra\lab_branding\final\emaprLogoFit5buffer.png"
   inkscape:export-xdpi="90"
   inkscape:export-ydpi="90">
  <defs
     id="defs4">
    <linearGradient
       inkscape:collect="always"
       id="linearGradient4161">
      <stop
         style="stop-color:#ffffff;stop-opacity:1;"
         offset="0"
         id="stop4163" />
      <stop
         style="stop-color:#ffffff;stop-opacity:0;"
         offset="1"
         id="stop4165" />
    </linearGradient>
    <linearGradient
       inkscape:collect="always"
       xlink:href="#linearGradient4161"
       id="linearGradient4167"
       x1="-195.28336"
       y1="519.36353"
       x2="-58.027519"
       y2="519.36353"
       gradientUnits="userSpaceOnUse"
       gradientTransform="matrix(0.99952445,0,0,0.99952445,-496.73591,50.299681)" />
  </defs>
  <sodipodi:namedview
     id="base"
     pagecolor="#ffffff"
     bordercolor="#666666"
     borderopacity="1.0"
     inkscape:pageopacity="0.0"
     inkscape:pageshadow="2"
     inkscape:zoom="2.6017658"
     inkscape:cx="224.34412"
     inkscape:cy="163.21835"
     inkscape:document-units="px"
     inkscape:current-layer="layer1"
     showgrid="false"
     inkscape:window-width="2560"
     inkscape:window-height="1538"
     inkscape:window-x="-8"
     inkscape:window-y="-8"
     inkscape:window-maximized="1"
     inkscape:snap-smooth-nodes="true"
     inkscape:snap-object-midpoints="true"
     inkscape:snap-global="false"
     inkscape:object-nodes="true"
     units="px"
     inkscape:showpageshadow="false" />
  <metadata
     id="metadata7">
    <rdf:RDF>
      <cc:Work
         rdf:about="">
        <dc:format>image/svg+xml</dc:format>
        <dc:type
           rdf:resource="http://purl.org/dc/dcmitype/StillImage" />
        <dc:title></dc:title>
      </cc:Work>
    </rdf:RDF>
  </metadata>
  <g
     inkscape:label="Layer 1"
     inkscape:groupmode="layer"
     id="layer1"
     transform="translate(0,-703.85125)">
    <g
       id="g4154">
      <g
         inkscape:export-ydpi="90"
         inkscape:export-xdpi="90"
         transform="matrix(0.99952445,0,0,0.99952445,-200.86364,442.43785)"
         id="g4205">
        <circle
           style="fill:#59b0d3;fill-opacity:1;stroke:#000000;stroke-width:11.69235706;stroke-linejoin:round;stroke-miterlimit:4;stroke-dasharray:none;stroke-dashoffset:0;stroke-opacity:1"
           id="path4191"
           cx="452.14999"
           cy="455.21222"
           r="144.15382" />
        <path
           inkscape:connector-curvature="0"
           style="fill:#76d03b;fill-opacity:1;stroke:#000000;stroke-width:11.69235706;stroke-linejoin:round;stroke-miterlimit:4;stroke-dasharray:none;stroke-dashoffset:0;stroke-opacity:1"
           d="m 427.28906,313.23633 a 144.15382,144.15382 0 0 0 -91.83203,57.57812 c -1.44449,4.25862 -1.60584,8.73804 -1.18359,13.32032 0.75458,7.2119 4.11359,14.96567 10.10742,19.24804 4.50743,1.40216 6.51113,6.32517 9.9043,9.33594 5.22718,1.40129 9.5375,3.98634 12.02148,8.71289 3.46231,4.14906 5.85486,8.87931 8.95703,13.2168 5.13344,7.64374 14.93775,6.83762 22.95117,8.42773 9.66303,4.0579 17.38576,11.68382 27.03907,15.9043 7.84229,5.28085 16.29787,8.4885 25.93359,9.25976 4.38643,2.18665 5.68706,8.30689 2.08594,11.77344 -5.62646,4.11168 -2.67648,11.60294 -5.95117,16.99219 2.23258,8.77841 9.21476,15.28596 14.36914,22.4668 5.19169,3.53665 11.0582,8.13961 11.90625,14.86718 0.56572,8.58025 -2.93472,17.01366 -2.52539,25.70118 1.09186,6.6152 -3.07308,12.41309 -4.51954,18.37304 1.33,5.90119 0.44386,11.84516 1.18555,17.69532 0.0269,0.90273 0.22983,1.60838 0.54492,2.17578 a 144.15382,144.15382 0 0 0 12.63086,-1.97266 c 5.46261,-5.1865 4.71688,-15.23663 11.75391,-19.54297 3.63385,-0.96073 7.60635,-3.41815 9.37891,-7.41211 3.27023,-0.84774 8.18884,0.53621 9.94921,-3.5039 6.27726,-7.31048 10.30299,-16.34646 17.79883,-22.58399 3.61321,-2.36021 6.77435,-4.92123 9.65625,-8.19922 6.47099,-4.49873 1.45936,-13.94086 6.7461,-18.92578 4.347,-4.72259 10.53242,-10.76347 6.95312,-17.66015 -2.94608,-3.71084 -8.57796,-5.02503 -13.17383,-6.10157 -7.52105,-2.38999 -17.70159,-1.3721 -22.11914,-9.12695 -0.0273,-4.40433 -1.31952,-9.94139 -6.79883,-9.66992 -3.49212,-2.58504 -8.06102,-2.12824 -11.21289,-5.04688 -8.21876,-3.40444 -16.3033,-8.93965 -25.66211,-8.1875 -5.96322,-1.76905 -11.46349,0.97411 -16.50586,3.97461 -5.40323,-2.17619 -11.74568,-2.47974 -15.82031,-7.08984 -3.94024,-3.11447 -8.21071,-5.78507 -10.18554,-10.69336 -1.01331,-2.97138 4.66262,-8.44766 1,-10.12695 -3.85487,-1.2379 -13.80821,1.89975 -14.15821,-4.23829 -2.95593,-7.26564 2.97518,-14.93049 10,-16.87304 3.87048,-1.42998 9.09448,-3.21284 12.5586,-0.6211 2.54706,1.69051 4.69814,11.19407 7.62695,9.08203 0.49958,-5.237 -1.96527,-14.30798 3.40625,-17.92187 3.51467,-2.10634 7.753,-4.75949 6.16406,-9.54297 1.6205,-6.46247 7.31446,-11.26555 12.41602,-15.26562 3.22589,-4.70969 8.74914,-2.73297 13.39648,-3.30078 6.93045,2.4777 12.29962,-9.18942 20.2207,-8.9961 6.80554,0.55493 9.47528,1.26162 -1.08789,-10.30469 -0.53705,-4.28322 -0.79709,-9.36574 -5,-11.78515 -6.54099,-3.07758 -7.11203,-9.90683 -11.60742,-14.82227 -7.39758,2.57533 -13.41705,1.25863 -18.45898,-3.61523 -1.85233,-4.44322 -11.66162,-5.64697 -13.09766,-0.65821 -2.33733,4.65929 3.84712,9.02482 2.375,13.45899 -1.94748,4.01075 -0.75663,10.81882 -5.57031,13.24609 -4.428,5.78136 -8.46466,0.85302 -6.14063,-4.75195 -8.183,-2.2182 -14.97733,-4.54085 -22.60937,-8.17969 -4.96775,-1.49457 -8.8083,-5.66644 -7.39063,-11.10742 l 18.57032,-15 -3.78907,-1.51563 c -1.06728,-0.20278 -2.13702,-0.35455 -3.20703,-0.46679 z"
           id="circle4194" />
      </g>
      <path
         inkscape:export-ydpi="90"
         inkscape:export-xdpi="90"
         inkscape:connector-curvature="0"
         id="path4213"
         d="m 73.672361,717.71708 -2.729871,10.25774 a 52.161881,52.534286 0 0 0 -3.793225,0.0246 52.161881,52.534286 0 0 0 -3.786788,0.36033 L 59.539565,718.56 a 62.848816,62.905678 55.671624 0 0 -17.501433,5.72736 l 2.73315,10.27802 a 52.161881,52.534286 0 0 0 -6.332867,4.18835 l -8.343211,-6.69506 a 62.848816,62.905678 55.671624 0 0 -12.343447,13.71542 l 7.60898,7.6607 a 52.161881,52.534286 0 0 0 -3.367448,6.84297 L 11.159114,758.63999 A 62.848816,62.905678 55.671624 0 0 7.3552935,776.7211 l 10.6298625,2.86933 a 52.161881,52.534286 0 0 0 0.02139,3.81631 52.161881,52.534286 0 0 0 0.359309,3.81652 l -10.1616354,4.01993 a 62.848816,62.905678 55.671624 0 0 5.8067874,17.53795 l 10.512198,-2.83648 a 52.161881,52.534286 0 0 0 4.1614,6.37793 l -6.735865,8.51844 a 62.848816,62.905678 55.671624 0 0 13.800104,12.22205 l 7.512996,-7.5653 a 52.161881,52.534286 0 0 0 6.794297,3.3887 l -1.580468,10.59911 a 62.848816,62.905678 55.671624 0 0 18.027663,3.69395 l 2.727293,-10.25483 a 52.161881,52.534286 0 0 0 3.793305,-0.0232 52.161881,52.534286 0 0 0 3.786628,-0.36309 l 3.822911,9.79976 a 62.848816,62.905678 55.671624 0 0 17.501584,-5.7246 l -2.73322,-10.27938 a 52.161881,52.534286 0 0 0 6.335537,-4.1899 l 8.34321,6.69505 A 62.848816,62.905678 55.671624 0 0 122.424,815.12392 l -7.60912,-7.66347 a 52.161881,52.534286 0 0 0 3.36487,-6.84005 l 10.83691,1.63761 a 62.848816,62.905678 55.671624 0 0 3.80109,-18.08095 l -10.62986,-2.86931 a 52.161881,52.534286 0 0 0 -0.0215,-3.81771 52.161881,52.534286 0 0 0 -0.35907,-3.81237 l 10.16285,-4.02278 a 62.848816,62.905678 55.671624 0 0 -5.80541,-17.53805 l -10.51768,2.8368 a 52.161881,52.534286 0 0 0 -4.15868,-6.37951 l 6.73868,-8.51722 a 62.848816,62.905678 55.671624 0 0 -13.80277,-12.22052 l -7.512925,7.5667 a 52.161881,52.534286 0 0 0 -6.794278,-3.38873 l 1.580298,-10.60186 a 62.848816,62.905678 55.671624 0 0 -18.025004,-3.69548 z m -6.036717,18.9673 a 43.524071,43.834806 0 0 1 45.905996,41.29557 43.524071,43.834806 0 0 1 -41.004199,46.23382 43.524071,43.834806 0 0 1 -45.906079,-41.29693 43.524071,43.834806 0 0 1 41.004282,-46.23246 z"
         style="fill:#000000;fill-opacity:1;stroke:none;stroke-width:1.40976882;stroke-linejoin:round;stroke-miterlimit:4;stroke-dasharray:none;stroke-dashoffset:0;stroke-opacity:1" />
      <path
         inkscape:export-ydpi="90"
         inkscape:export-xdpi="90"
         inkscape:connector-curvature="0"
         style="fill:#000000;fill-opacity:1;stroke:none;stroke-width:0.68684644;stroke-linejoin:round;stroke-miterlimit:4;stroke-dasharray:none;stroke-dashoffset:0;stroke-opacity:1"
         d="m 162.59614,708.85132 -1.60739,4.91408 a 25.414564,25.593923 0 0 0 -1.84591,-0.0929 25.414564,25.593923 0 0 0 -1.8519,0.0707 l -1.59268,-4.87234 a 30.641125,30.627086 0 0 0 -8.66963,2.30228 l 1.04955,5.07487 a 25.414564,25.593923 0 0 0 -3.19475,1.86229 l -3.87616,-3.48708 a 30.641125,30.627086 0 0 0 -6.37813,6.3303 l 3.4927,3.93649 a 25.414564,25.593923 0 0 0 -1.82452,3.23545 l -5.2257,-1.09598 a 30.641125,30.627086 0 0 0 -2.34294,8.68977 l 5.09274,1.68939 a 25.414564,25.593923 0 0 0 -0.0934,1.85689 25.414564,25.593923 0 0 0 0.0709,1.86633 l -5.05265,1.67458 a 30.641125,30.627086 0 0 0 2.34694,8.69111 l 5.19096,-1.08926 a 25.414564,25.593923 0 0 0 1.85056,3.2173 l -3.50873,3.95735 a 30.641125,30.627086 0 0 0 6.38014,6.32624 l 3.86079,-3.47226 a 25.414564,25.593923 0 0 0 3.21279,1.83604 l -1.05756,5.11188 a 30.641125,30.627086 0 0 0 8.66896,2.29488 l 1.60604,-4.91273 a 25.414564,25.593923 0 0 0 1.8459,0.0936 25.414564,25.593923 0 0 0 1.85191,-0.0721 l 1.59269,4.87234 a 30.641125,30.627086 0 0 0 8.66962,-2.30094 l -1.04954,-5.07553 a 25.414564,25.593923 0 0 0 3.19607,-1.86297 l 3.87619,3.4871 a 30.641125,30.627086 0 0 0 6.3781,-6.3303 l -3.49269,-3.93785 a 25.414564,25.593923 0 0 0 1.82319,-3.2341 l 5.22703,1.09598 a 30.641125,30.627086 0 0 0 2.34161,-8.68977 l -5.09276,-1.68937 a 25.414564,25.593923 0 0 0 0.0935,-1.85759 25.414564,25.593923 0 0 0 -0.0709,-1.86431 l 5.05333,-1.67591 a 30.641125,30.627086 0 0 0 -2.34629,-8.69113 l -5.19362,1.08925 a 25.414564,25.593923 0 0 0 -1.84923,-3.21796 l 3.51007,-3.95667 a 30.641125,30.627086 0 0 0 -6.38146,-6.32558 l -3.86083,3.47293 a 25.414564,25.593923 0 0 0 -3.21277,-1.83604 l 1.05757,-5.11321 a 30.641125,30.627086 0 0 0 -8.66763,-2.29557 z m -3.4533,9.05912 a 21.206009,21.355666 0 0 1 21.2061,21.35508 21.206009,21.355666 0 0 1 -21.2061,21.35573 21.206009,21.355666 0 0 1 -21.20605,-21.35573 21.206009,21.355666 0 0 1 21.20605,-21.35508 z"
         id="path4224" />
      <circle
         inkscape:export-ydpi="90"
         inkscape:export-xdpi="90"
         transform="matrix(0.56441936,-0.82548821,0.82548821,0.56441936,0,0)"
         r="65.846588"
         cy="569.4162"
         cx="-623.33112"
         id="path4297"
         style="fill:url(#linearGradient4167);fill-opacity:1;stroke:#d62851;stroke-width:5.49738455;stroke-linecap:butt;stroke-linejoin:round;stroke-miterlimit:4;stroke-dasharray:none;stroke-dashoffset:0;stroke-opacity:1" />
      <path
         inkscape:export-ydpi="90"
         inkscape:export-xdpi="90"
         inkscape:connector-curvature="0"
         id="rect8300"
         d="M 66.964593,880.82325 5.3101665,954.3358 a 10.142371,3.4491179 39.986316 0 0 5.5530875,9.15947 10.142371,3.4491179 39.986316 0 0 9.988088,3.87481 10.142371,3.4491179 39.986316 0 0 0.152068,-0.24446 l 61.471273,-73.29416 -15.51005,-13.00817 z"
         style="fill:#d62851;fill-opacity:1;stroke:none;stroke-width:1.01024842;stroke-linecap:butt;stroke-linejoin:round;stroke-miterlimit:4;stroke-dasharray:none;stroke-dashoffset:0;stroke-opacity:1" />
    </g>
  </g>
</svg>
