<?xml version="1.0" encoding="UTF-8" standalone="no"?>
<!-- Generator: Adobe Illustrator 19.0.0, SVG Export Plug-In . SVG Version: 6.00 Build 0)  -->

<svg
   xmlns:dc="http://purl.org/dc/elements/1.1/"
   xmlns:cc="http://creativecommons.org/ns#"
   xmlns:rdf="http://www.w3.org/1999/02/22-rdf-syntax-ns#"
   xmlns:svg="http://www.w3.org/2000/svg"
   xmlns="http://www.w3.org/2000/svg"
   xmlns:sodipodi="http://sodipodi.sourceforge.net/DTD/sodipodi-0.dtd"
   xmlns:inkscape="http://www.inkscape.org/namespaces/inkscape"
   version="1.1"
   id="Layer_1"
   x="0px"
   y="0px"
   viewBox="0 0 400.00001 300.00001"
   xml:space="preserve"
   sodipodi:docname="phenology.svg"
   width="400"
   height="300"
   inkscape:version="0.92.1 r15371"><metadata
     id="metadata49"><rdf:RDF><cc:Work
         rdf:about=""><dc:format>image/svg+xml</dc:format><dc:type
           rdf:resource="http://purl.org/dc/dcmitype/StillImage" /><dc:title></dc:title></cc:Work></rdf:RDF></metadata><defs
     id="defs47" /><sodipodi:namedview
     pagecolor="#ffffff"
     bordercolor="#666666"
     borderopacity="1"
     objecttolerance="10"
     gridtolerance="10"
     guidetolerance="10"
     inkscape:pageopacity="0"
     inkscape:pageshadow="2"
     inkscape:window-width="1920"
     inkscape:window-height="1137"
     id="namedview45"
     showgrid="false"
     inkscape:showpageshadow="false"
     inkscape:zoom="1.3495305"
     inkscape:cx="210.82432"
     inkscape:cy="189.03218"
     inkscape:window-x="-8"
     inkscape:window-y="-8"
     inkscape:window-maximized="1"
     inkscape:current-layer="Layer_1" /><path
     style="fill:#b6611a;stroke-width:0.57517409;fill-opacity:1"
     d="m 304.31637,77.722212 c -4.29483,0 -42.33282,4.294825 -74.84914,16.565014 -36.19743,10.429634 -60.73838,24.540954 -120.86306,-9.202785 1.84056,-81.5982296 82.21136,-84.66563321 126.38474,-65.033215 49.08133,20.85984 63.80579,53.376736 69.32746,57.670986 z"
     id="path2"
     inkscape:connector-curvature="0" /><path
     style="fill:#415a6b;stroke-width:0.57517409"
     d="m 258.30244,56.862945 c 2.45427,-2.454268 -112.8877,-25.767801 -169.331262,36.811146 3.681114,2.454268 7.362228,4.907961 11.043342,7.362229 -1.226846,3.0674 41.10597,-58.897833 158.28792,-44.173375 z"
     id="path4"
     inkscape:connector-curvature="0" /><path
     style="fill:#9ba049;stroke-width:0.57517409;fill-opacity:1"
     d="m 73.633585,104.10372 c 1.840557,4.29483 24.540954,34.97059 52.149315,56.44357 26.99464,25.76779 52.14931,40.49225 52.14931,109.20658 -71.16802,39.26541 -114.114547,-28.83521 -119.022508,-77.3034 -6.135957,-52.76245 14.110172,-81.59823 14.723883,-88.34675 z"
     id="path6"
     inkscape:connector-curvature="0" /><path
     style="fill:#415a6b;stroke-width:0.57517409"
     d="m 79.155256,153.79877 c -3.067403,-1.22685 34.356874,110.43343 116.568814,128.22529 0.61371,-4.29483 0.61371,-8.58908 1.22685,-13.49761 2.45369,5.7e-4 -71.78173,-5.5211 -117.795664,-114.72768 z"
     id="path8"
     inkscape:connector-curvature="0" /><path
     style="fill:#11c002;stroke-width:0.57517409;fill-opacity:1"
     d="m 212.28851,290 c 2.45427,-3.68112 17.79186,-38.6517 22.7004,-73.62229 8.58907,-36.19743 9.20278,-65.03321 68.10061,-100.0038 69.94117,42.33282 32.51632,113.50084 -6.74852,141.7229 -42.33281,32.5169 -77.91711,29.44892 -84.05249,31.90319 z"
     id="path10"
     inkscape:connector-curvature="0" /><path
     style="fill:#415a6b;stroke-width:0.57517409"
     d="m 252.78077,260.55108 c 0.61371,3.68112 78.53025,-84.66563 52.76244,-165.036432 -4.29482,1.840557 -7.97593,3.681114 -12.27018,5.521672 -1.22685,-1.840558 30.67633,65.03264 -40.49226,159.51476 z"
     id="path12"
     inkscape:connector-curvature="0" /><g
     id="g14"
     transform="translate(0,-194.62299)" /><g
     id="g16"
     transform="translate(0,-194.62299)" /><g
     id="g18"
     transform="translate(0,-194.62299)" /><g
     id="g20"
     transform="translate(0,-194.62299)" /><g
     id="g22"
     transform="translate(0,-194.62299)" /><g
     id="g24"
     transform="translate(0,-194.62299)" /><g
     id="g26"
     transform="translate(0,-194.62299)" /><g
     id="g28"
     transform="translate(0,-194.62299)" /><g
     id="g30"
     transform="translate(0,-194.62299)" /><g
     id="g32"
     transform="translate(0,-194.62299)" /><g
     id="g34"
     transform="translate(0,-194.62299)" /><g
     id="g36"
     transform="translate(0,-194.62299)" /><g
     id="g38"
     transform="translate(0,-194.62299)" /><g
     id="g40"
     transform="translate(0,-194.62299)" /><g
     id="g42"
     transform="translate(0,-194.62299)" /></svg>