<?xml version="1.0" encoding="UTF-8" standalone="no"?>
<!-- Created with Inkscape (http://www.inkscape.org/) -->

<svg
   xmlns:dc="http://purl.org/dc/elements/1.1/"
   xmlns:cc="http://creativecommons.org/ns#"
   xmlns:rdf="http://www.w3.org/1999/02/22-rdf-syntax-ns#"
   xmlns:svg="http://www.w3.org/2000/svg"
   xmlns="http://www.w3.org/2000/svg"
   xmlns:sodipodi="http://sodipodi.sourceforge.net/DTD/sodipodi-0.dtd"
   xmlns:inkscape="http://www.inkscape.org/namespaces/inkscape"
   width="210"
   height="400"
   viewBox="0 0 55.562499 105.83334"
   version="1.1"
   id="svg4536"
   inkscape:version="0.92.1 r15371"
   sodipodi:docname="satellite_orbiting.svg">
  <defs
     id="defs4530" />
  <sodipodi:namedview
     id="base"
     pagecolor="#ffffff"
     bordercolor="#666666"
     borderopacity="1.0"
     inkscape:pageopacity="0.0"
     inkscape:pageshadow="2"
     inkscape:zoom="1.4142136"
     inkscape:cx="23.387711"
     inkscape:cy="223.43433"
     inkscape:document-units="mm"
     inkscape:current-layer="layer1"
     showgrid="false"
     inkscape:snap-global="false"
     inkscape:window-width="1920"
     inkscape:window-height="1137"
     inkscape:window-x="-8"
     inkscape:window-y="-8"
     inkscape:window-maximized="1"
     units="px" />
  <metadata
     id="metadata4533">
    <rdf:RDF>
      <cc:Work
         rdf:about="">
        <dc:format>image/svg+xml</dc:format>
        <dc:type
           rdf:resource="http://purl.org/dc/dcmitype/StillImage" />
        <dc:title></dc:title>
      </cc:Work>
    </rdf:RDF>
  </metadata>
  <g
     inkscape:label="Layer 1"
     inkscape:groupmode="layer"
     id="layer1"
     transform="translate(0,-191.16664)">
    <g
       id="g4596"
       transform="matrix(0.46919207,0,0,0.46919207,200.91677,211.81322)">
      <circle
         transform="rotate(74.816243)"
         r="51.844437"
         cy="370.75931"
         cx="-29.354397"
         id="path4191"
         style="fill:#59b0d3;fill-opacity:1;stroke:#000000;stroke-width:2.06500006;stroke-linejoin:round;stroke-miterlimit:4;stroke-dasharray:none;stroke-dashoffset:0;stroke-opacity:1" />
      <path
         id="circle4194"
         d="m -374.027,18.463073 a 51.141518,50.95229 0 0 0 -32.5793,20.351435 c -0.51246,1.505242 -0.5697,3.088528 -0.41989,4.70817 0.26769,2.549106 1.45937,5.28973 3.5858,6.803367 1.59911,0.495611 2.30996,2.235684 3.51377,3.299861 1.85444,0.495298 3.38362,1.409009 4.26485,3.079636 1.22833,1.466523 2.07713,3.138469 3.1777,4.671584 1.82119,2.701749 5.29947,2.416813 8.14239,2.978851 3.42817,1.434307 6.16796,4.129737 9.59267,5.621487 2.78221,1.86656 5.782,3.00033 9.20047,3.27294 1.55618,0.77289 2.0176,2.93614 0.74003,4.16142 -1.9961,1.4533 -0.94954,4.10114 -2.1113,6.00601 0.79205,3.1028 3.26912,5.40294 5.09774,7.94107 1.84187,1.25007 3.92313,2.87701 4.224,5.25491 0.2007,3.03277 -1.04116,6.013616 -0.89594,9.084286 0.38735,2.33819 -1.09024,4.3875 -1.6034,6.4941 0.47184,2.08581 0.15746,4.18676 0.4206,6.25454 0.0101,0.31908 0.0816,0.5685 0.19332,0.76905 a 51.141518,50.95229 0 0 0 4.48106,-0.69725 c 1.93798,-1.8332 1.67341,-5.3855 4.16994,-6.90761 1.28918,-0.33957 2.69851,-1.20818 3.32735,-2.61987 1.16018,-0.29964 2.90516,0.18953 3.52969,-1.23849 2.22699,-2.58394 3.6552,-5.77778 6.3145,-7.982476 1.28186,-0.83423 2.40334,-1.73945 3.42575,-2.89807 2.29572,-1.59012 0.51774,-4.92752 2.39332,-6.68947 1.54219,-1.66923 3.73659,-3.80443 2.46676,-6.24212 -1.04518,-1.31162 -3.04321,-1.77614 -4.67368,-2.15664 -2.66825,-0.84476 -6.28,-0.48498 -7.84722,-3.226 -0.0101,-1.55674 -0.46813,-3.51387 -2.41203,-3.41791 -1.23889,-0.9137 -2.85981,-0.75224 -3.97799,-1.78386 -2.91578,-1.20332 -5.78394,-3.15978 -9.10417,-2.89393 -2.11557,-0.62528 -4.0669,0.34432 -5.85579,1.40487 -1.91691,-0.7692 -4.16702,-0.87649 -5.61257,-2.50598 -1.39789,-1.10083 -2.91293,-2.04477 -3.61354,-3.77964 -0.35948,-1.050268 1.65417,-2.98589 0.35478,-3.579447 -1.3676,-0.437549 -4.89875,0.671483 -5.02292,-1.49806 -1.04868,-2.568093 1.05551,-5.277298 3.5477,-5.963905 1.37314,-0.505441 3.22645,-1.135606 4.45543,-0.219536 0.90362,0.597527 1.66675,3.956631 2.70581,3.210113 0.17723,-1.85106 -0.69722,-5.057261 1.20843,-6.334625 1.2469,-0.744504 2.75054,-1.682274 2.18684,-3.37303 0.5749,-2.284214 2.59495,-3.981899 4.40483,-5.395756 1.14446,-1.664677 3.10394,-0.965989 4.75268,-1.166686 2.45872,0.875761 4.36353,-3.248072 7.1737,-3.179742 2.41441,0.196144 3.36156,0.445929 -0.38594,-3.642273 -0.19053,-1.513937 -0.28279,-3.310394 -1.77386,-4.165552 -2.32055,-1.087795 -2.52313,-3.501647 -4.11797,-5.239048 -2.62444,0.910271 -4.75997,0.444872 -6.54871,-1.277831 -0.65714,-1.570491 -4.13719,-1.995965 -4.64666,-0.23265 -0.82921,1.646863 1.36485,3.189893 0.84258,4.757185 -0.6909,1.41763 -0.26842,3.823996 -1.97617,4.681934 -1.57092,2.043467 -3.00301,0.301506 -2.17852,-1.679614 -2.90308,-0.784039 -5.31351,-1.604999 -8.02114,-2.891175 -1.76241,-0.528267 -3.12492,-2.002847 -2.62197,-3.926004 l 6.5882,-5.301867 -1.34426,-0.535712 c -0.37863,-0.07167 -0.75815,-0.125318 -1.13775,-0.16499 z"
         style="fill:#76d03b;fill-opacity:1;stroke:none;stroke-width:1.32332277;stroke-linejoin:round;stroke-miterlimit:4;stroke-dasharray:none;stroke-dashoffset:0;stroke-opacity:1"
         inkscape:connector-curvature="0" />
      <ellipse
         transform="rotate(74.816243)"
         ry="19.654762"
         rx="112.6369"
         cy="370.75931"
         cx="-29.354397"
         id="path5106"
         style="opacity:1;fill:none;fill-opacity:1;fill-rule:nonzero;stroke:#000000;stroke-width:1.68199992;stroke-linecap:butt;stroke-linejoin:round;stroke-miterlimit:4;stroke-dasharray:none;stroke-dashoffset:0;stroke-opacity:1" />
      <path
         sodipodi:nodetypes="sssss"
         inkscape:connector-curvature="0"
         id="circle5108"
         d="m -351.80057,117.67081 c -27.06352,7.34476 2.32681,-18.049506 -5.01795,-45.113026 -7.34475,-27.063514 -48.64329,-45.547867 -21.57977,-52.892624 27.06352,-7.344756 54.95693,8.640455 62.30169,35.703964 7.34476,27.06351 -8.64046,54.956926 -35.70397,62.301686 z"
         style="fill:#59b0d3;fill-opacity:1;stroke:none;stroke-width:1.29563689;stroke-linejoin:round;stroke-miterlimit:4;stroke-dasharray:none;stroke-dashoffset:0;stroke-opacity:1" />
      <path
         sodipodi:nodetypes="cccccccccccccccccccccccccccccccccccccccccccccccccccc"
         inkscape:connector-curvature="0"
         style="fill:#76d03b;fill-opacity:1;stroke:none;stroke-width:1.32332277;stroke-linejoin:round;stroke-miterlimit:4;stroke-dasharray:none;stroke-dashoffset:0;stroke-opacity:1"
         d="m -374.027,18.463073 c -13.10359,2.302975 -12.80046,6.294274 -14.79306,7.218348 -0.51245,1.505243 2.26275,18.041827 2.41255,19.661469 0.17055,12.879292 3.39389,7.334695 11.6585,24.634574 2.78221,1.86656 5.782,3.00033 9.20047,3.27294 1.55618,0.77289 2.0176,2.93614 0.74003,4.16142 -1.9961,1.4533 -0.94954,4.10114 -2.1113,6.00601 0.79205,3.1028 3.26912,5.40294 5.09774,7.94107 1.84187,1.25007 3.92313,2.87701 4.224,5.25491 0.2007,3.03277 -1.04116,6.013616 -0.89594,9.084286 0.38735,2.33819 -1.09024,4.3875 -1.6034,6.4941 0.47184,2.08581 0.15746,4.18676 0.4206,6.25454 0.0101,0.31908 0.0816,0.5685 0.19332,0.76905 1.5033,-0.16628 2.99846,-0.39893 4.48106,-0.69725 1.93798,-1.8332 1.67341,-5.3855 4.16994,-6.90761 1.28918,-0.33957 2.69851,-1.20818 3.32735,-2.61987 1.16018,-0.29964 2.90516,0.18953 3.52969,-1.23849 2.22699,-2.58394 3.6552,-5.77778 6.3145,-7.982476 1.28186,-0.83423 2.40334,-1.73945 3.42575,-2.89807 2.29572,-1.59012 0.51774,-4.92752 2.39332,-6.68947 1.54219,-1.66923 3.73659,-3.80443 2.46676,-6.24212 -1.04518,-1.31162 -3.04321,-1.77614 -4.67368,-2.15664 -2.66825,-0.84476 -6.28,-0.48498 -7.84722,-3.226 -0.0101,-1.55674 -0.46813,-3.51387 -2.41203,-3.41791 -1.23889,-0.9137 -2.85981,-0.75224 -3.97799,-1.78386 -2.91578,-1.20332 -5.78394,-3.15978 -9.10417,-2.89393 -2.11557,-0.62528 -4.0669,0.34432 -5.85579,1.40487 -1.91691,-0.7692 -4.16702,-0.87649 -5.61257,-2.50598 -1.39789,-1.10083 -2.91293,-2.04477 -3.61354,-3.77964 -0.35948,-1.050268 1.65417,-2.98589 0.35478,-3.579447 -1.3676,-0.437549 -4.89875,0.671483 -5.02292,-1.49806 -1.04868,-2.568093 1.05551,-5.277298 3.5477,-5.963905 1.37314,-0.505441 3.22645,-1.135606 4.45543,-0.219536 0.90362,0.597527 1.66675,3.956631 2.70581,3.210113 0.17723,-1.85106 -0.69722,-5.057261 1.20843,-6.334625 1.2469,-0.744504 2.75054,-1.682274 2.18684,-3.37303 0.5749,-2.284214 2.59495,-3.981899 4.40483,-5.395756 1.14446,-1.664677 3.10394,-0.965989 4.75268,-1.166686 2.45872,0.875761 4.36353,-3.248072 7.1737,-3.179742 2.41441,0.196144 3.36156,0.445929 -0.38594,-3.642273 -0.19053,-1.513937 -0.28279,-3.310394 -1.77386,-4.165552 -2.32055,-1.087795 -2.52313,-3.501647 -4.11797,-5.239048 -2.62444,0.910271 -4.75997,0.444872 -6.54871,-1.277831 -0.65714,-1.570491 -4.13719,-1.995965 -4.64666,-0.23265 -0.82921,1.646863 1.36485,3.189893 0.84258,4.757185 -0.6909,1.41763 -0.26842,3.823996 -1.97617,4.681934 -1.57092,2.043467 -3.00301,0.301506 -2.17852,-1.679614 -2.90308,-0.784039 -5.31351,-1.604999 -8.02114,-2.891175 -1.76241,-0.528267 -3.12492,-2.002847 -2.62197,-3.926004 l 6.5882,-5.301867 -1.34426,-0.535712 c -0.37863,-0.07167 -0.75815,-0.125318 -1.13775,-0.16499 z"
         id="path5121" />
      <g
         style="fill:#e04343;fill-opacity:1;stroke:#b80000;stroke-opacity:1"
         transform="matrix(0.07991503,0.01777587,-0.01777587,0.07991503,-418,-29.137967)"
         id="g5359">
        <g
           style="fill:#e04343;fill-opacity:1;stroke:#b80000;stroke-opacity:1"
           id="g5203">
          <g
             style="fill:#e04343;fill-opacity:1;stroke:#b80000;stroke-opacity:1"
             id="g5201">
            <rect
               style="fill:#e04343;fill-opacity:1;stroke:#b80000;stroke-opacity:1"
               x="93.025002"
               y="126.497"
               transform="matrix(0.7071,-0.7071,0.7071,0.7071,-62.0552,149.8196)"
               width="113.593"
               height="46.639999"
               id="rect5199" />
          </g>
        </g>
        <g
           style="fill:#e04343;fill-opacity:1;stroke:#b80000;stroke-opacity:1"
           id="g5209">
          <g
             style="fill:#e04343;fill-opacity:1;stroke:#b80000;stroke-opacity:1"
             id="g5207">
            <path
               style="fill:#e04343;fill-opacity:1;stroke:#b80000;stroke-opacity:1"
               inkscape:connector-curvature="0"
               d="m 405.347,325.026 -19.02,-19.02 c -11.622,-11.622 -27.069,-17.134 -42.328,-16.557 0.577,-15.257 -4.935,-30.705 -16.557,-42.328 l -20.517,-20.517 23.059,-23.039 38.696,38.696 33.481,-33.481 -38.752,-38.752 -33.481,33.481 -21.382,-21.382 -23.059,23.039 -57.578,-57.579 -80.323,80.323 57.544,57.544 -23.059,23.04 21.436,21.436 -33.481,33.481 38.752,38.752 33.481,-33.481 -38.749,-38.749 23.059,-23.04 20.551,20.551 c 11.072,11.072 25.617,16.61 40.161,16.61 0.723,0 1.444,-0.024 2.166,-0.052 -0.577,15.257 4.935,30.705 16.557,42.327 l 19.02,19.02 29.442,-29.442 17.056,17.056 21.438,-21.438 -17.056,-17.056 z"
               id="path5205" />
          </g>
        </g>
        <g
           style="fill:#e04343;fill-opacity:1;stroke:#b80000;stroke-opacity:1"
           id="g5215">
          <g
             style="fill:#e04343;fill-opacity:1;stroke:#b80000;stroke-opacity:1"
             id="g5213">
            <rect
               style="fill:#e04343;fill-opacity:1;stroke:#b80000;stroke-opacity:1"
               x="122.282"
               y="278.457"
               transform="matrix(0.7071,-0.7071,0.7071,0.7071,-173.526,192.7906)"
               width="47.348"
               height="54.805"
               id="rect5211" />
          </g>
        </g>
        <g
           style="fill:#e04343;fill-opacity:1;stroke:#b80000;stroke-opacity:1"
           id="g5221">
          <g
             style="fill:#e04343;fill-opacity:1;stroke:#b80000;stroke-opacity:1"
             id="g5219">
            <rect
               style="fill:#e04343;fill-opacity:1;stroke:#b80000;stroke-opacity:1"
               x="72.627998"
               y="448.483"
               transform="matrix(0.7071,-0.7071,0.7071,0.7071,-308.2957,207.4794)"
               width="47.348"
               height="54.805"
               id="rect5217" />
          </g>
        </g>
        <g
           style="fill:#e04343;fill-opacity:1;stroke:#b80000;stroke-opacity:1"
           id="g5227">
          <g
             style="fill:#e04343;fill-opacity:1;stroke:#b80000;stroke-opacity:1"
             id="g5225">
            <rect
               style="fill:#e04343;fill-opacity:1;stroke:#b80000;stroke-opacity:1"
               x="127.557"
               y="393.56601"
               transform="matrix(0.7071,-0.7071,0.7071,0.7071,-253.375,230.2356)"
               width="47.348"
               height="54.805"
               id="rect5223" />
          </g>
        </g>
        <g
           style="fill:#e04343;fill-opacity:1;stroke:#b80000;stroke-opacity:1"
           id="g5233">
          <g
             style="fill:#e04343;fill-opacity:1;stroke:#b80000;stroke-opacity:1"
             id="g5231">
            <rect
               style="fill:#e04343;fill-opacity:1;stroke:#b80000;stroke-opacity:1"
               x="67.363998"
               y="333.37201"
               transform="matrix(0.7071,-0.7071,0.7071,0.7071,-228.4422,170.042)"
               width="47.348"
               height="54.805"
               id="rect5229" />
          </g>
        </g>
        <g
           style="fill:#e04343;fill-opacity:1;stroke:#b80000;stroke-opacity:1"
           id="g5239">
          <g
             style="fill:#e04343;fill-opacity:1;stroke:#b80000;stroke-opacity:1"
             id="g5237">
            <rect
               style="fill:#e04343;fill-opacity:1;stroke:#b80000;stroke-opacity:1"
               x="12.443"
               y="388.285"
               transform="matrix(0.7071,-0.7071,0.7071,0.7071,-283.3576,147.2908)"
               width="47.348"
               height="54.805"
               id="rect5235" />
          </g>
        </g>
        <g
           style="fill:#e04343;fill-opacity:1;stroke:#b80000;stroke-opacity:1"
           id="g5245">
          <g
             style="fill:#e04343;fill-opacity:1;stroke:#b80000;stroke-opacity:1"
             id="g5243">
            <rect
               style="fill:#e04343;fill-opacity:1;stroke:#b80000;stroke-opacity:1"
               x="452.21301"
               y="68.911003"
               transform="matrix(0.7071,-0.7071,0.7071,0.7071,71.2803,364.7122)"
               width="47.348"
               height="54.805"
               id="rect5241" />
          </g>
        </g>
        <g
           style="fill:#e04343;fill-opacity:1;stroke:#b80000;stroke-opacity:1"
           id="g5251">
          <g
             style="fill:#e04343;fill-opacity:1;stroke:#b80000;stroke-opacity:1"
             id="g5249">
            <rect
               style="fill:#e04343;fill-opacity:1;stroke:#b80000;stroke-opacity:1"
               x="392.013"
               y="8.7150002"
               transform="matrix(0.7071,-0.7071,0.7071,0.7071,96.2123,304.5132)"
               width="47.348"
               height="54.805"
               id="rect5247" />
          </g>
        </g>
        <g
           style="fill:#e04343;fill-opacity:1;stroke:#b80000;stroke-opacity:1"
           id="g5257">
          <g
             style="fill:#e04343;fill-opacity:1;stroke:#b80000;stroke-opacity:1"
             id="g5255">
            <rect
               style="fill:#e04343;fill-opacity:1;stroke:#b80000;stroke-opacity:1"
               x="397.28799"
               y="123.821"
               transform="matrix(0.7071,-0.7071,0.7071,0.7071,16.3655,341.9577)"
               width="47.348"
               height="54.805"
               id="rect5253" />
          </g>
        </g>
        <g
           style="fill:#e04343;fill-opacity:1;stroke:#b80000;stroke-opacity:1"
           id="g5263">
          <g
             style="fill:#e04343;fill-opacity:1;stroke:#b80000;stroke-opacity:1"
             id="g5261">
            <rect
               style="fill:#e04343;fill-opacity:1;stroke:#b80000;stroke-opacity:1"
               x="337.099"
               y="63.632"
               transform="matrix(0.7071,-0.7071,0.7071,0.7071,41.2969,281.7681)"
               width="47.348"
               height="54.805"
               id="rect5259" />
          </g>
        </g>
        <g
           style="fill:#e04343;fill-opacity:1;stroke:#b80000;stroke-opacity:1"
           id="g5269">
          <g
             style="fill:#e04343;fill-opacity:1;stroke:#b80000;stroke-opacity:1"
             id="g5267">
            <rect
               style="fill:#e04343;fill-opacity:1;stroke:#b80000;stroke-opacity:1"
               x="282.177"
               y="118.556"
               transform="matrix(0.7071,-0.7071,0.7071,0.7071,-13.6266,259.0194)"
               width="47.348"
               height="54.805"
               id="rect5265" />
          </g>
        </g>
        <g
           style="fill:#e04343;fill-opacity:1;stroke:#b80000;stroke-opacity:1"
           id="g5271" />
        <g
           style="fill:#e04343;fill-opacity:1;stroke:#b80000;stroke-opacity:1"
           id="g5273" />
        <g
           style="fill:#e04343;fill-opacity:1;stroke:#b80000;stroke-opacity:1"
           id="g5275" />
        <g
           style="fill:#e04343;fill-opacity:1;stroke:#b80000;stroke-opacity:1"
           id="g5277" />
        <g
           style="fill:#e04343;fill-opacity:1;stroke:#b80000;stroke-opacity:1"
           id="g5279" />
        <g
           style="fill:#e04343;fill-opacity:1;stroke:#b80000;stroke-opacity:1"
           id="g5281" />
        <g
           style="fill:#e04343;fill-opacity:1;stroke:#b80000;stroke-opacity:1"
           id="g5283" />
        <g
           style="fill:#e04343;fill-opacity:1;stroke:#b80000;stroke-opacity:1"
           id="g5285" />
        <g
           style="fill:#e04343;fill-opacity:1;stroke:#b80000;stroke-opacity:1"
           id="g5287" />
        <g
           style="fill:#e04343;fill-opacity:1;stroke:#b80000;stroke-opacity:1"
           id="g5289" />
        <g
           style="fill:#e04343;fill-opacity:1;stroke:#b80000;stroke-opacity:1"
           id="g5291" />
        <g
           style="fill:#e04343;fill-opacity:1;stroke:#b80000;stroke-opacity:1"
           id="g5293" />
        <g
           style="fill:#e04343;fill-opacity:1;stroke:#b80000;stroke-opacity:1"
           id="g5295" />
        <g
           style="fill:#e04343;fill-opacity:1;stroke:#b80000;stroke-opacity:1"
           id="g5297" />
        <g
           style="fill:#e04343;fill-opacity:1;stroke:#b80000;stroke-opacity:1"
           id="g5299" />
      </g>
    </g>
  </g>
</svg>
