<?xml version="1.0" encoding="UTF-8" standalone="no"?>
<!-- Created with Inkscape (http://www.inkscape.org/) -->

<svg
   xmlns:dc="http://purl.org/dc/elements/1.1/"
   xmlns:cc="http://creativecommons.org/ns#"
   xmlns:rdf="http://www.w3.org/1999/02/22-rdf-syntax-ns#"
   xmlns:svg="http://www.w3.org/2000/svg"
   xmlns="http://www.w3.org/2000/svg"
   xmlns:sodipodi="http://sodipodi.sourceforge.net/DTD/sodipodi-0.dtd"
   xmlns:inkscape="http://www.inkscape.org/namespaces/inkscape"
   version="1.1"
   id="svg5606"
   width="400"
   height="300"
   viewBox="0 0 400 300"
   sodipodi:docname="california_carbon.svg"
   inkscape:version="0.92.1 r15371">
  <metadata
     id="metadata5612">
    <rdf:RDF>
      <cc:Work
         rdf:about="">
        <dc:format>image/svg+xml</dc:format>
        <dc:type
           rdf:resource="http://purl.org/dc/dcmitype/StillImage" />
        <dc:title></dc:title>
      </cc:Work>
    </rdf:RDF>
  </metadata>
  <defs
     id="defs5610" />
  <sodipodi:namedview
     pagecolor="#ffffff"
     bordercolor="#666666"
     borderopacity="1"
     objecttolerance="10"
     gridtolerance="10"
     guidetolerance="10"
     inkscape:pageopacity="0"
     inkscape:pageshadow="2"
     inkscape:window-width="1920"
     inkscape:window-height="1137"
     id="namedview5608"
     showgrid="false"
     inkscape:zoom="0.99165005"
     inkscape:cx="118.49635"
     inkscape:cy="323.89418"
     inkscape:window-x="-8"
     inkscape:window-y="-8"
     inkscape:window-maximized="1"
     inkscape:current-layer="svg5606" />
  <g
     id="g7122"
     transform="translate(-20.128181)">
    <path
       inkscape:connector-curvature="0"
       id="path6159"
       d="m 259.17758,288.45865 v -1.54135 l -25.96537,-2.97143 c -14.28095,-1.63427 -26.4412,-3.07842 -27.02278,-3.2092 -0.83701,-0.18822 -1.05741,-0.56365 -1.05741,-1.80111 0,-0.85983 0.22426,-2.15317 0.49835,-2.87409 0.35594,-0.93621 0.33814,-2.79153 -0.0623,-6.49257 -0.70574,-6.52285 -2.17654,-10.4615 -4.71945,-12.63814 -1.72191,-1.47388 -1.82612,-1.71473 -1.82612,-4.22028 0,-2.10627 -0.20122,-2.82771 -0.97049,-3.47963 -0.53377,-0.45234 -2.19865,-2.03846 -3.69972,-3.52471 -1.50108,-1.48625 -3.07345,-2.70228 -3.49415,-2.70228 -0.50208,0 -0.76491,-0.40269 -0.76491,-1.17195 0,-0.8399 -0.56592,-1.5794 -1.99734,-2.60997 -1.09853,-0.7909 -3.94741,-3.23345 -6.33084,-5.4279 -2.38344,-2.19444 -5.23846,-4.40034 -6.34448,-4.902 -1.10603,-0.50166 -4.6545,-3.37691 -7.88549,-6.38944 -6.72882,-6.27389 -8.07875,-7.22227 -10.28367,-7.2247 -2.47297,-0.003 -4.54407,-1.57982 -5.93451,-4.51899 -1.4353,-3.03398 -1.22229,-4.26145 1.37302,-7.91181 l 1.56935,-2.20732 -0.80868,-3.60842 c -1.10411,-4.92673 -1.95769,-6.50547 -6.96449,-12.88124 l -4.32893,-5.51255 v -2.82317 c 0,-2.77881 -0.037,-2.85804 -2.34981,-5.04097 -2.18309,-2.06043 -2.3498,-2.37726 -2.3498,-4.46549 0,-1.36596 -0.50601,-3.49408 -1.28989,-5.42489 -1.51999,-3.74394 -1.67202,-7.12643 -0.38427,-8.54938 0.48809,-0.53933 1.75874,-1.0599 3.02067,-1.23753 1.19801,-0.16863 2.67635,-0.6204 3.28519,-1.00392 l 1.107,-0.69733 -1.83923,-1.76729 c -2.10152,-2.01934 -4.97915,-7.60466 -5.7034,-11.07 -0.27011,-1.29239 -0.62004,-4.78185 -0.77762,-7.75436 -0.22754,-4.29198 -0.14811,-5.59275 0.38585,-6.31873 0.65501,-0.89055 0.74111,-0.87251 3.33215,0.69782 1.46287,0.88659 2.97365,2.09103 3.35728,2.67652 1.20075,1.83258 2.08573,1.34995 2.08573,-1.13748 0,-1.61804 -0.27261,-2.4922 -1.0279,-3.29617 -0.75616,-0.8049 -1.0829,-1.85471 -1.236,-3.97124 l -0.20811,-2.87709 1.82346,0.3408 c 1.00289,0.18744 2.0878,0.55925 2.4109,0.82625 0.65267,0.53934 0.76542,-0.0942 0.31512,-1.77066 -0.28096,-1.04598 -4.34089,-3.69298 -6.49254,-4.23301 -1.31746,-0.33066 -1.32641,-0.31801 -1.05505,1.4929 0.64586,4.31034 0.58329,4.7039 -0.95342,5.99696 -1.85622,1.5619 -3.44164,1.56097 -5.80554,-0.003 -1.54674,-1.02368 -1.86977,-1.50314 -1.86977,-2.77539 0,-1.06935 -0.50118,-2.13783 -1.64486,-3.50673 -1.53097,-1.83245 -1.64486,-2.19347 -1.64486,-5.21403 0,-3.12434 0.0426,-3.24527 1.14323,-3.24527 2.39255,0 1.85255,-2.860665 -1.19524,-6.331914 -1.16705,-1.32919 -1.52273,-2.26944 -1.85276,-4.897793 -0.22464,-1.788997 -1.15686,-5.145404 -2.07161,-7.458635 -1.88296,-4.761707 -2.14706,-8.0565 -0.91757,-11.447549 0.81258,-2.241181 1.75216,-7.663229 1.78232,-10.285248 0.0127,-1.105626 -0.55577,-2.580513 -1.72443,-4.4739 -0.97072,-1.572682 -1.74804,-3.445305 -1.75386,-4.225156 -0.006,-0.77034 -0.424,-1.929319 -0.92947,-2.575519 -1.64409,-2.101851 -0.88245,-8.765443 1.76209,-15.416647 1.06204,-2.671087 1.29821,-2.948605 2.39956,-2.819768 0.9696,0.113428 1.38216,0.579127 2.00008,2.25773 1.1399,3.096637 1.92392,2.712824 2.87997,-1.409886 0.44956,-1.938589 1.54961,-6.273986 2.44457,-9.634209 0.89495,-3.360222 1.96614,-7.795232 2.38041,-9.855576 0.41427,-2.060339 0.82692,-3.819776 0.917,-3.909852 0.19284,-0.1928425 75.99999,19.094454 76.32445,19.418913 0.12141,0.121413 -3.42082,17.261615 -7.87163,38.089336 l -8.09238,37.868593 0.88978,1.49082 c 0.48938,0.81995 18.19633,28.66634 39.34878,61.88086 21.15246,33.21452 39.00226,61.34171 39.66624,62.50487 0.95448,1.67205 1.26604,3.00357 1.48809,6.35978 0.16613,2.5109 0.58992,4.81464 1.03744,5.63954 0.41612,0.76702 1.02251,1.92329 1.34754,2.56948 0.32502,0.6462 1.28704,1.96858 2.13781,2.93861 0.85076,0.97005 1.54685,2.18474 1.54685,2.69934 0,1.34592 -3.37793,3.61539 -6.27707,4.21725 -2.33346,0.48442 -2.517,0.63487 -3.90182,3.19842 -1.53259,2.83711 -2.74322,7.39189 -3.21324,12.08932 -0.38293,3.82699 -1.87683,7.49424 -3.3209,8.15221 -1.42193,0.64787 -1.46575,1.31702 -0.11433,1.74594 1.45208,0.46087 2.69446,2.09804 2.71288,3.57491 0.0115,0.91824 -0.39553,1.50817 -1.51976,2.20299 -0.84446,0.5219 -2.04448,1.49082 -2.66671,2.15315 -0.77425,0.82415 -1.62461,1.20423 -2.69426,1.20423 -1.45292,0 -1.56294,-0.1085 -1.56294,-1.54135 z m 4.6776,-2.2687 c 2.36724,-2.13972 2.27056,-3.13125 -0.37944,-3.89127 -1.27699,-0.36622 -1.47839,-0.63717 -1.47839,-1.9888 0,-1.26295 0.27165,-1.70529 1.40827,-2.29306 1.7789,-0.9199 2.63587,-2.96243 3.30543,-7.87829 0.74295,-5.45469 1.55966,-8.71107 2.7983,-11.15743 1.91811,-3.78834 2.65802,-4.55099 4.73797,-4.88359 2.2069,-0.3529 5.60856,-1.95645 5.60856,-2.64389 0,-0.25323 -0.43024,-0.89065 -0.95609,-1.4165 -1.06638,-1.06639 -2.9256,-4.07467 -4.03939,-6.53589 -0.40257,-0.88961 -0.87242,-3.53843 -1.0441,-5.88627 l -0.31215,-4.26879 -40.54856,-63.76776 -40.54856,-63.76776 8.00622,-37.459157 c 4.40342,-20.602538 7.91752,-37.547854 7.80912,-37.656259 -0.10841,-0.108405 -16.55067,-4.372768 -36.53836,-9.476357 l -36.34126,-9.279257 -2.0349,8.02845 c -1.1192,4.415649 -2.40669,9.614569 -2.86107,11.553158 -1.58696,6.770557 -1.73906,7.049423 -3.84484,7.049423 -1.9028,0 -2.04963,-0.149205 -3.00623,-3.054751 -0.2827,-0.858667 -0.3744,-0.818038 -1.06076,0.469965 -1.07404,2.015529 -2.43365,8.051045 -2.43495,10.809113 -8.3e-4,1.340171 0.29536,2.741772 0.68889,3.262061 0.3795,0.50174 0.69,1.546438 0.69,2.321554 0,0.817963 0.80815,2.746828 1.92601,4.596969 1.36398,2.257451 1.92337,3.705687 1.91694,4.962843 -0.014,2.739417 -0.85126,7.646731 -1.72357,10.102222 -1.17258,3.30071 -0.73754,7.585146 1.34212,13.217684 0.93944,2.544365 1.70808,5.444896 1.70808,6.445615 0,1.33021 0.36212,2.234637 1.34663,3.363227 3.3372,3.825623 3.91033,7.516417 1.39167,8.961927 -1.34277,0.77065 -1.42946,0.9755 -1.18479,2.79965 0.14519,1.0825 0.56846,2.19081 0.94061,2.46293 1.03888,0.75965 2.67173,3.65252 2.67369,4.7369 8.3e-4,0.53466 0.64661,1.4458 1.44031,2.03261 1.37479,1.01642 1.49205,1.02851 2.64532,0.27286 1.18756,-0.77812 1.20159,-0.85455 0.88122,-4.80287 l -0.32554,-4.01218 2.21937,0.30421 c 1.22066,0.16731 3.5802,1.06521 5.24344,1.99535 3.45557,1.93246 4.34629,3.41011 4.34629,7.21022 v 2.35455 l -2.20684,-1.39953 c -1.21376,-0.76974 -2.39984,-1.39954 -2.63573,-1.39954 -0.72062,0 0.13438,2.43892 1.36964,3.90694 1.04034,1.23638 1.15074,1.74498 1.0269,4.73119 l -0.13876,3.34589 -2.07904,-0.0466 c -1.67132,-0.0374 -2.28011,-0.29877 -3.10435,-1.33246 -1.05125,-1.3184 -3.42287,-3.07695 -4.15709,-3.08248 -0.22617,-0.002 -0.26041,0.68422 -0.0761,1.52427 0.18433,0.84006 0.50102,3.81615 0.70375,6.61355 0.33688,4.64839 0.5366,5.42519 2.32047,9.02518 1.39465,2.81454 2.55214,4.43091 4.05461,5.66207 1.15651,0.94768 2.10013,2.06767 2.09693,2.48887 -0.009,1.16401 -2.91575,2.79943 -5.61158,3.15705 -3.66317,0.48593 -4.18778,2.28625 -2.13696,7.33334 0.73733,1.8146 1.1749,3.81118 1.1749,5.361 0,2.26684 0.13979,2.58478 1.703,3.87331 2.62605,2.16461 3.45996,3.73533 3.46348,6.52365 0.003,2.37467 0.14263,2.63428 4.29734,7.98935 4.7854,6.16798 5.68591,7.92931 6.94653,13.58684 l 0.8705,3.90671 -1.81775,2.43635 c -2.45868,3.29536 -2.58633,3.90912 -1.35837,6.53086 1.07712,2.29971 2.41919,3.27717 4.49958,3.27717 2.18482,0 5.09433,1.99451 10.89196,7.46658 3.18698,3.00803 6.69738,5.87921 7.82154,6.39728 1.12173,0.51696 4.0226,2.7522 6.44638,4.96722 2.42376,2.215 5.4114,4.73578 6.63917,5.60171 1.22777,0.86593 2.23232,1.87963 2.23232,2.25267 0,0.73266 6.02742,6.55006 7.76015,7.48975 0.87245,0.47314 1.11414,1.12811 1.38733,3.75969 0.28563,2.75148 0.54686,3.41138 1.91261,4.83159 2.51773,2.61812 3.87513,6.31087 4.66499,12.69089 0.47808,3.86163 0.55416,6.02198 0.24108,6.84544 -0.4913,1.29224 -0.61995,3.49178 -0.20422,3.49178 0.13927,0 12.09597,1.37463 26.57045,3.05475 14.47447,1.68011 26.52077,3.05475 26.76956,3.05475 0.24878,0 0.45233,0.63444 0.45233,1.40988 0,0.77544 0.15862,1.40121 0.35247,1.39061 0.19387,-0.0106 1.29424,-0.87052 2.44529,-1.91094 z"
       style="fill:#000000;stroke-width:0.4699614" />
    <g
       transform="matrix(0.1347777,0,0,0.1347777,154.09947,125.13447)"
       id="g6710">
      <g
         id="g6647">
        <path
           inkscape:connector-curvature="0"
           style="fill:#a78966"
           d="m 124.121,385.618 v 69.818 c 0,12.854 10.42,23.273 23.273,23.273 12.853,0 23.273,-10.418 23.273,-23.273 v -69.818 h -23.273 z"
           id="path6643" />
        <path
           inkscape:connector-curvature="0"
           style="fill:#a78966"
           d="m 302.545,385.618 v 69.818 c 0,12.854 10.42,23.273 23.273,23.273 12.853,0 23.273,-10.418 23.273,-23.273 v -69.818 h -23.273 z"
           id="path6645" />
      </g>
      <path
         inkscape:connector-curvature="0"
         style="fill:#317f46"
         d="m 346.357,45.619 c -4.042,-7.588 -11.94,-12.33 -20.539,-12.33 -8.598,0 -16.497,4.741 -20.539,12.33 l -87.929,165.046 13.16,24.793 13.16,24.793 41.84,78.822 6.006,11.315 c 2.096,3.496 3.302,7.587 3.302,11.958 0,12.854 -10.418,23.273 -23.273,23.273 h 31.001 23.273 23.273 139.636 c 8.173,0 15.746,-4.287 19.952,-11.295 4.208,-7.008 4.428,-15.708 0.586,-22.921 z"
         id="path6649" />
      <path
         inkscape:connector-curvature="0"
         style="fill:#79ab03"
         d="m 285.51,339.073 -41.84,-78.822 -13.16,-24.793 -13.16,-24.793 -49.4,-93.063 c -4.039,-7.607 -11.945,-12.362 -20.556,-12.362 -8.611,0 -16.517,4.755 -20.556,12.361 L 2.716,351.432 c -3.829,7.215 -3.596,15.906 0.611,22.905 4.208,6.999 11.778,11.28 19.943,11.28 h 100.848 23.273 23.273 100.848 0.031 c 12.854,0 23.273,-10.418 23.273,-23.273 0,-4.371 -1.206,-8.464 -3.302,-11.958 z"
         id="path6651" />
      <g
         id="g6653" />
      <g
         id="g6655" />
      <g
         id="g6657" />
      <g
         id="g6659" />
      <g
         id="g6661" />
      <g
         id="g6663" />
      <g
         id="g6665" />
      <g
         id="g6667" />
      <g
         id="g6669" />
      <g
         id="g6671" />
      <g
         id="g6673" />
      <g
         id="g6675" />
      <g
         id="g6677" />
      <g
         id="g6679" />
      <g
         id="g6681" />
    </g>
    <g
       style="stroke-width:0.15330842;stroke-miterlimit:4;stroke-dasharray:none"
       transform="matrix(0.05536749,0,0,0.05536749,170.89184,183.1178)"
       id="g6773">
      <path
         inkscape:connector-curvature="0"
         style="fill:#64c37d;stroke-width:0.15330842;stroke-miterlimit:4;stroke-dasharray:none"
         d="M 191.448,406.768 H 63.583 l 51.386,-89.001 5.623,20.918 c 2.793,10.389 12.19,17.237 22.46,17.237 2,0 4.034,-0.259 6.056,-0.805 12.414,-3.334 19.771,-16.103 16.434,-28.515 L 145.36,251.524 c -0.002,-0.006 -0.003,-0.014 -0.005,-0.022 -0.002,-0.003 -0.003,-0.005 -0.003,-0.009 -0.006,-0.017 -0.012,-0.034 -0.017,-0.051 -0.062,-0.225 -0.146,-0.436 -0.214,-0.658 -0.149,-0.495 -0.293,-0.993 -0.475,-1.471 -0.011,-0.028 -0.02,-0.059 -0.029,-0.088 -0.048,-0.129 -0.113,-0.247 -0.164,-0.374 -0.064,-0.157 -0.137,-0.306 -0.203,-0.459 -0.166,-0.391 -0.326,-0.787 -0.51,-1.165 -0.023,-0.043 -0.039,-0.093 -0.062,-0.138 -0.15,-0.299 -0.33,-0.58 -0.492,-0.874 -0.067,-0.119 -0.133,-0.236 -0.2,-0.355 -0.074,-0.135 -0.15,-0.268 -0.227,-0.4 -0.04,-0.078 -0.082,-0.152 -0.126,-0.225 -0.031,-0.048 -0.054,-0.101 -0.085,-0.149 -0.178,-0.284 -0.385,-0.546 -0.576,-0.819 -0.211,-0.303 -0.414,-0.614 -0.638,-0.908 -0.116,-0.15 -0.242,-0.292 -0.365,-0.436 -0.106,-0.124 -0.208,-0.25 -0.313,-0.374 -0.016,-0.017 -0.031,-0.036 -0.045,-0.054 -0.248,-0.293 -0.492,-0.594 -0.752,-0.874 -0.002,-0.003 -0.005,-0.005 -0.006,-0.008 -0.23,-0.244 -0.478,-0.469 -0.717,-0.701 -0.025,-0.025 -0.05,-0.05 -0.076,-0.074 -0.278,-0.268 -0.548,-0.546 -0.838,-0.799 -0.003,-0.003 -0.006,-0.005 -0.009,-0.008 -0.199,-0.172 -0.41,-0.332 -0.616,-0.493 -0.121,-0.095 -0.239,-0.194 -0.36,-0.289 -0.265,-0.209 -0.521,-0.43 -0.797,-0.627 -0.563,-0.403 -1.148,-0.777 -1.745,-1.129 -0.062,-0.036 -0.116,-0.079 -0.178,-0.115 -0.003,-0.002 -0.005,-0.002 -0.006,-0.005 -0.563,-0.323 -1.145,-0.61 -1.733,-0.886 -0.099,-0.048 -0.194,-0.105 -0.295,-0.152 -0.008,-0.005 -0.014,-0.006 -0.02,-0.009 -0.317,-0.144 -0.647,-0.258 -0.971,-0.388 -0.064,-0.025 -0.127,-0.05 -0.191,-0.074 -0.31,-0.123 -0.616,-0.258 -0.934,-0.365 -0.006,-0.002 -0.012,-0.005 -0.019,-0.006 -0.389,-0.132 -0.788,-0.233 -1.184,-0.344 -0.033,-0.011 -0.067,-0.019 -0.099,-0.028 -0.098,-0.028 -0.197,-0.054 -0.293,-0.082 -0.203,-0.059 -0.403,-0.123 -0.61,-0.169 -0.399,-0.095 -0.805,-0.157 -1.209,-0.23 -0.242,-0.043 -0.486,-0.087 -0.728,-0.127 -0.098,-0.017 -0.197,-0.039 -0.295,-0.051 -0.005,0 -0.008,-0.002 -0.008,-0.002 -0.393,-0.051 -0.787,-0.073 -1.178,-0.104 -0.368,-0.029 -0.732,-0.07 -1.102,-0.082 -0.389,-0.012 -0.782,0.006 -1.174,0.014 -0.171,0.003 -0.343,-0.002 -0.514,0.005 -0.155,0.006 -0.306,-0.005 -0.459,0.005 -0.043,0.005 -0.087,0.011 -0.13,0.014 -0.388,0.026 -0.777,0.084 -1.165,0.13 -0.068,0.008 -0.135,0.014 -0.203,0.022 -0.276,0.034 -0.549,0.048 -0.825,0.093 -0.022,0.003 -0.043,0.009 -0.065,0.014 -0.115,0.02 -0.23,0.051 -0.346,0.074 -0.5,0.09 -0.996,0.199 -1.489,0.321 -0.141,0.029 -0.284,0.054 -0.424,0.092 l -0.006,0.002 h -0.003 l -0.003,0.002 -75.141,20.165 c -12.415,3.331 -19.777,16.095 -16.446,28.509 2.79,10.394 12.19,17.247 22.463,17.247 1.997,0 4.028,-0.259 6.046,-0.802 L 74.613,294.583 3.119,418.404 c -4.158,7.199 -4.158,16.071 0,23.273 4.158,7.199 11.84,11.636 20.154,11.636 h 168.175 c 12.853,0 23.273,-10.42 23.273,-23.273 0,-12.853 -10.419,-23.272 -23.273,-23.272 z"
         id="path6712" />
      <path
         inkscape:connector-curvature="0"
         style="fill:#368b4c;stroke-width:0.15330842;stroke-miterlimit:4;stroke-dasharray:none"
         d="m 424.794,272.759 c -6.428,-11.132 -20.66,-14.943 -31.791,-8.519 -11.132,6.428 -14.946,20.662 -8.518,31.792 l 63.932,110.736 -102.768,-0.003 15.303,-15.327 c 9.083,-9.095 9.07,-23.831 -0.028,-32.912 -9.095,-9.081 -23.831,-9.07 -32.912,0.026 l -54.953,55.042 c -0.101,0.101 -0.186,0.213 -0.285,0.317 -0.428,0.445 -0.85,0.898 -1.243,1.376 -0.022,0.025 -0.045,0.048 -0.065,0.074 -0.219,0.267 -0.403,0.551 -0.607,0.824 -0.022,0.028 -0.042,0.057 -0.064,0.087 -0.208,0.281 -0.427,0.555 -0.619,0.842 -0.029,0.045 -0.065,0.087 -0.095,0.13 -0.194,0.293 -0.354,0.602 -0.531,0.901 -0.006,0.009 -0.012,0.019 -0.017,0.028 -0.135,0.225 -0.27,0.45 -0.402,0.678 -0.042,0.074 -0.092,0.147 -0.13,0.222 -0.028,0.053 -0.064,0.102 -0.092,0.157 -0.149,0.284 -0.265,0.577 -0.4,0.863 -0.012,0.023 -0.023,0.048 -0.033,0.07 -0.09,0.191 -0.175,0.38 -0.264,0.569 -0.064,0.135 -0.132,0.267 -0.188,0.405 -0.022,0.054 -0.051,0.105 -0.073,0.16 -0.118,0.29 -0.203,0.59 -0.309,0.883 -0.005,0.012 -0.008,0.025 -0.012,0.034 -0.127,0.357 -0.264,0.707 -0.372,1.069 -0.016,0.048 -0.036,0.095 -0.05,0.144 -0.095,0.315 -0.154,0.638 -0.233,0.956 v 0 c -0.093,0.371 -0.197,0.739 -0.272,1.112 -0.008,0.037 -0.02,0.074 -0.028,0.113 -0.051,0.271 -0.076,0.546 -0.118,0.819 -0.019,0.112 -0.031,0.223 -0.048,0.337 -0.022,0.154 -0.042,0.307 -0.065,0.459 -0.028,0.172 -0.057,0.343 -0.074,0.517 -0.003,0.028 -0.009,0.056 -0.012,0.082 -0.025,0.253 -0.02,0.507 -0.036,0.76 -0.028,0.433 -0.057,0.867 -0.06,1.302 0,0.051 -0.008,0.101 -0.008,0.152 0,0.002 0,0.005 0,0.005 0,0.003 0,0.008 0,0.012 0,0.203 0.023,0.406 0.029,0.61 0.016,0.542 0.028,1.083 0.079,1.621 0.003,0.022 0.006,0.04 0.009,0.062 0.014,0.141 0.039,0.278 0.061,0.417 0.022,0.177 0.051,0.352 0.076,0.529 0.057,0.403 0.099,0.807 0.175,1.207 0.006,0.033 0.019,0.065 0.025,0.098 0.073,0.368 0.175,0.723 0.265,1.085 0.084,0.332 0.147,0.669 0.245,0.999 0.012,0.042 0.033,0.084 0.043,0.127 0.109,0.355 0.242,0.698 0.366,1.047 0.113,0.32 0.209,0.642 0.337,0.957 0.02,0.048 0.047,0.096 0.067,0.144 0.135,0.323 0.292,0.632 0.441,0.946 0.152,0.324 0.285,0.655 0.453,0.973 0.026,0.048 0.057,0.095 0.085,0.143 0.011,0.022 0.026,0.042 0.036,0.062 0.149,0.273 0.318,0.54 0.479,0.81 0.191,0.323 0.365,0.652 0.573,0.967 0.026,0.039 0.057,0.074 0.084,0.113 0.02,0.031 0.045,0.061 0.065,0.09 0.191,0.282 0.405,0.552 0.61,0.829 0.213,0.284 0.403,0.577 0.63,0.852 0.016,0.019 0.034,0.036 0.048,0.054 l 0.002,0.003 c 0.458,0.554 0.943,1.092 1.458,1.612 0.029,0.03 0.053,0.061 0.082,0.092 l 55.045,54.998 c 4.544,4.541 10.498,6.81 16.449,6.81 5.959,0 11.919,-2.275 16.463,-6.824 9.084,-9.092 9.079,-23.827 -0.014,-32.912 l -15.275,-15.262 142.98,10e-4 c 8.313,0 15.996,-4.437 20.154,-11.636 4.158,-7.201 4.158,-16.072 0,-23.273 z"
         id="path6714" />
      <path
         inkscape:connector-curvature="0"
         style="fill:#a4e276;stroke-width:0.15330842;stroke-miterlimit:4;stroke-dasharray:none"
         d="m 349.595,221.953 c 0.006,0.002 0.011,0.003 0.017,0.005 0.019,0.005 0.036,0.008 0.053,0.012 0.282,0.074 0.563,0.133 0.846,0.197 0.216,0.048 0.43,0.104 0.647,0.147 0.146,0.028 0.292,0.045 0.438,0.071 0.348,0.061 0.695,0.126 1.044,0.171 0.239,0.031 0.478,0.045 0.715,0.07 0.07,0.006 0.14,0.012 0.209,0.02 0.059,0.005 0.118,0.011 0.175,0.017 0.135,0.014 0.27,0.031 0.403,0.039 0.5,0.033 1.001,0.048 1.499,0.048 0.047,0 0.092,-0.005 0.138,-0.006 0.532,-0.003 1.061,-0.026 1.587,-0.067 0.186,-0.014 0.369,-0.034 0.554,-0.054 0.258,-0.025 0.51,-0.061 0.766,-0.095 0.151,-0.02 0.303,-0.034 0.453,-0.056 0.101,-0.016 0.203,-0.022 0.303,-0.039 0.081,-0.014 0.158,-0.036 0.239,-0.05 0.082,-0.014 0.161,-0.036 0.242,-0.051 0.368,-0.07 0.739,-0.143 1.102,-0.231 0.088,-0.02 0.178,-0.033 0.267,-0.056 0.012,-0.003 0.023,-0.006 0.034,-0.009 0.017,-0.005 0.033,-0.011 0.048,-0.016 0.579,-0.147 1.151,-0.315 1.714,-0.506 0.002,0 0.003,-0.002 0.003,-0.002 0.014,-0.005 0.026,-0.009 0.037,-0.012 0.169,-0.059 0.337,-0.129 0.504,-0.195 0.355,-0.133 0.712,-0.261 1.063,-0.41 0.048,-0.022 0.099,-0.036 0.146,-0.056 0.109,-0.048 0.213,-0.105 0.321,-0.155 0.206,-0.093 0.41,-0.197 0.613,-0.295 0.163,-0.078 0.329,-0.152 0.49,-0.234 0.085,-0.045 0.175,-0.082 0.262,-0.127 0.096,-0.051 0.186,-0.112 0.282,-0.164 0.149,-0.082 0.298,-0.154 0.445,-0.237 0.116,-0.067 0.222,-0.147 0.335,-0.216 0.006,-0.003 0.011,-0.006 0.016,-0.009 0.177,-0.109 0.363,-0.202 0.538,-0.315 0.237,-0.152 0.465,-0.324 0.697,-0.486 0.054,-0.037 0.11,-0.076 0.164,-0.113 0.149,-0.105 0.299,-0.205 0.447,-0.312 0.074,-0.056 0.155,-0.102 0.228,-0.158 0.316,-0.242 0.617,-0.504 0.925,-0.76 0.057,-0.048 0.118,-0.096 0.175,-0.144 0.112,-0.098 0.23,-0.183 0.341,-0.282 0.002,-0.002 0.005,-0.003 0.006,-0.005 0.306,-0.273 0.594,-0.568 0.886,-0.856 0.155,-0.152 0.316,-0.295 0.467,-0.451 0.04,-0.043 0.078,-0.092 0.118,-0.133 0.065,-0.07 0.127,-0.144 0.191,-0.217 0.095,-0.112 0.192,-0.222 0.289,-0.33 0.163,-0.185 0.33,-0.365 0.487,-0.554 0.053,-0.064 0.11,-0.119 0.163,-0.185 0.088,-0.109 0.163,-0.227 0.25,-0.337 0.161,-0.205 0.312,-0.419 0.467,-0.628 0.121,-0.168 0.251,-0.326 0.369,-0.496 0.016,-0.023 0.033,-0.042 0.048,-0.065 0.127,-0.186 0.237,-0.388 0.36,-0.58 0.132,-0.208 0.264,-0.417 0.391,-0.63 0.064,-0.107 0.135,-0.209 0.197,-0.318 0.022,-0.036 0.043,-0.067 0.064,-0.102 0.157,-0.275 0.29,-0.565 0.433,-0.847 0.102,-0.2 0.213,-0.399 0.309,-0.602 0.223,-0.469 0.424,-0.951 0.617,-1.438 0.037,-0.095 0.078,-0.191 0.116,-0.285 0.033,-0.081 0.07,-0.16 0.099,-0.244 0.227,-0.624 0.433,-1.26 0.611,-1.911 0.003,-0.012 0.008,-0.025 0.011,-0.034 0.009,-0.031 0.02,-0.059 0.028,-0.09 0,0 0,-0.002 0.002,-0.003 v 0 -0.002 c 0.002,-0.002 0.002,-0.005 0.003,-0.008 0.002,-0.005 0.002,-0.008 0.002,-0.011 l 20.103,-75.148 c 3.322,-12.417 -4.051,-25.176 -16.468,-28.497 -12.412,-3.32 -25.173,4.053 -28.495,16.468 l -5.581,20.859 -71.48,-123.82 C 272.027,8.13 264.343,3.694 256.029,3.694 c -8.313,0 -15.998,4.436 -20.154,11.636 l -84.086,145.64 c -6.428,11.131 -2.614,25.366 8.518,31.792 11.127,6.425 25.363,2.613 31.791,-8.519 l 63.933,-110.733 51.382,89.001 -20.925,-5.589 c -12.404,-3.316 -25.173,4.06 -28.489,16.479 -3.317,12.418 4.062,25.173 16.48,28.489 z"
         id="path6716" />
      <g
         style="stroke-width:0.15330842;stroke-miterlimit:4;stroke-dasharray:none"
         id="g6718" />
      <g
         style="stroke-width:0.15330842;stroke-miterlimit:4;stroke-dasharray:none"
         id="g6720" />
      <g
         style="stroke-width:0.15330842;stroke-miterlimit:4;stroke-dasharray:none"
         id="g6722" />
      <g
         style="stroke-width:0.15330842;stroke-miterlimit:4;stroke-dasharray:none"
         id="g6724" />
      <g
         style="stroke-width:0.15330842;stroke-miterlimit:4;stroke-dasharray:none"
         id="g6726" />
      <g
         style="stroke-width:0.15330842;stroke-miterlimit:4;stroke-dasharray:none"
         id="g6728" />
      <g
         style="stroke-width:0.15330842;stroke-miterlimit:4;stroke-dasharray:none"
         id="g6730" />
      <g
         style="stroke-width:0.15330842;stroke-miterlimit:4;stroke-dasharray:none"
         id="g6732" />
      <g
         style="stroke-width:0.15330842;stroke-miterlimit:4;stroke-dasharray:none"
         id="g6734" />
      <g
         style="stroke-width:0.15330842;stroke-miterlimit:4;stroke-dasharray:none"
         id="g6736" />
      <g
         style="stroke-width:0.15330842;stroke-miterlimit:4;stroke-dasharray:none"
         id="g6738" />
      <g
         style="stroke-width:0.15330842;stroke-miterlimit:4;stroke-dasharray:none"
         id="g6740" />
      <g
         style="stroke-width:0.15330842;stroke-miterlimit:4;stroke-dasharray:none"
         id="g6742" />
      <g
         style="stroke-width:0.15330842;stroke-miterlimit:4;stroke-dasharray:none"
         id="g6744" />
      <g
         style="stroke-width:0.15330842;stroke-miterlimit:4;stroke-dasharray:none"
         id="g6746" />
    </g>
    <g
       transform="matrix(-0.0303062,0.13809572,-0.13809572,-0.0303062,334.49623,61.91297)"
       id="g6887">
      <g
         id="g6779">
        <polygon
           style="fill:#b4b4b4"
           points="379.477,105.395 329.711,182.289 368.348,220.926 489.865,99.408 451.229,60.771 "
           id="polygon6775" />
        <polygon
           style="fill:#b4b4b4"
           points="60.772,451.229 99.408,489.865 220.926,368.347 182.289,329.711 102.702,371.152 "
           id="polygon6777" />
      </g>
      <g
         id="g6785">
        <rect
           x="285.22699"
           y="74.886002"
           transform="matrix(-0.7071,0.7071,-0.7071,-0.7071,705.8649,-87.961)"
           style="fill:#e0e0e0"
           width="171.84599"
           height="54.645"
           id="rect6781" />
        <rect
           x="74.901001"
           y="285.233"
           transform="matrix(0.7071,0.7071,-0.7071,0.7071,292.3859,36.4294)"
           style="fill:#e0e0e0"
           width="54.634998"
           height="171.84599"
           id="rect6783" />
      </g>
      <g
         id="g6791">
        <path
           inkscape:connector-curvature="0"
           style="fill:#424242"
           d="m 462.296,49.704 -78.767,63.619 -98.175,113.323 11.068,11.068 33.288,-33.288 38.636,38.636 L 512,99.408 Z m -93.949,149.087 -16.501,-16.501 18.371,-18.371 16.501,16.501 z m 40.507,-40.506 -16.501,-16.501 18.37,-18.37 16.501,16.501 z m 24.004,-57.007 18.371,-18.371 16.501,16.501 -18.371,18.371 z"
           id="path6787" />
        <path
           inkscape:connector-curvature="0"
           style="fill:#424242"
           d="M 99.408,512 243.061,368.347 204.424,329.71 237.712,296.422 226.645,285.355 113.322,383.53 49.703,462.297 Z m 82.881,-160.154 16.501,16.501 -18.371,18.371 -16.501,-16.501 z m -40.506,40.506 16.501,16.501 -18.371,18.371 -16.501,-16.501 z m -24.004,57.007 -18.371,18.371 -16.501,-16.502 18.371,-18.37 z"
           id="path6789" />
      </g>
      <g
         id="g6797">
        <path
           inkscape:connector-curvature="0"
           style="fill:#707070"
           d="m 412.593,0 -143.653,143.653 38.636,38.636 -33.288,33.289 11.067,11.067 176.941,-176.941 z m -82.882,160.155 -16.501,-16.501 18.371,-18.371 16.501,16.501 z m 40.506,-40.507 -16.501,-16.501 18.37,-18.37 16.501,16.501 z m 24.004,-57.007 18.371,-18.371 16.501,16.501 -18.371,18.371 z"
           id="path6793" />
        <path
           inkscape:connector-curvature="0"
           style="fill:#707070"
           d="M 182.29,307.576 143.653,268.94 0,412.592 49.704,462.296 226.645,285.355 215.578,274.288 Z M 60.772,429.094 44.271,412.593 62.642,394.222 79.143,410.723 Z m 40.506,-40.506 -16.501,-16.501 18.371,-18.371 16.501,16.501 z m 40.505,-40.506 -16.502,-16.502 18.371,-18.371 16.502,16.502 z"
           id="path6795" />
      </g>
      <path
         inkscape:connector-curvature="0"
         style="fill:#003da8"
         d="m 100.271,173.737 150.185,150.186 c 9.812,9.812 22.857,15.216 36.734,15.216 13.873,0 26.916,-5.402 36.727,-15.209 L 243.061,215.307 136.998,137.01 Z"
         id="path6799" />
      <path
         inkscape:connector-curvature="0"
         style="fill:#2f91ed"
         d="M 323.923,250.456 173.737,100.27 136.998,137.01 323.917,323.929 c 0.002,-0.002 0.004,-0.004 0.006,-0.006 20.254,-20.255 20.254,-53.212 0,-73.467 z"
         id="path6801" />
      <polygon
         style="fill:#424242"
         points="335.051,357.186 370.801,392.936 381.862,381.875 351.054,341.184 "
         id="polygon6803" />
      <rect
         x="361.69101"
         y="333.18701"
         transform="matrix(-0.7071,0.7071,-0.7071,-0.7071,884.2869,350.6449)"
         style="fill:#707070"
         width="15.662"
         height="50.555"
         id="rect6805" />
      <path
         inkscape:connector-curvature="0"
         style="fill:#2f91ed"
         d="m 293.951,346.374 c 0.126,13.876 5.649,26.872 15.55,36.594 l 15.797,15.512 36.391,-37.061 -17.682,-33.645 -35.18,-18.264 c -9.721,9.9 -15.004,22.992 -14.876,36.864 z"
         id="path6807" />
      <path
         inkscape:connector-curvature="0"
         style="fill:#63c1ff"
         d="m 382.294,308.835 c -9.901,-9.722 -22.995,-15.007 -36.872,-14.881 -13.875,0.126 -26.871,5.649 -36.593,15.55 -0.002,0.002 -0.004,0.004 -0.006,0.006 l 52.864,51.909 36.403,-37.073 z"
         id="path6809" />
      <polygon
         style="fill:#424242"
         points="166.192,166.203 114.102,218.293 136.237,240.427 188.325,188.338 182.289,170.444 "
         id="polygon6811" />
      <rect
         x="166.459"
         y="135.57201"
         transform="matrix(-0.7071,0.7071,-0.7071,-0.7071,453.9821,114.4011)"
         style="fill:#707070"
         width="73.678001"
         height="31.302999"
         id="rect6813" />
      <g
         id="g6815" />
      <g
         id="g6817" />
      <g
         id="g6819" />
      <g
         id="g6821" />
      <g
         id="g6823" />
      <g
         id="g6825" />
      <g
         id="g6827" />
      <g
         id="g6829" />
      <g
         id="g6831" />
      <g
         id="g6833" />
      <g
         id="g6835" />
      <g
         id="g6837" />
      <g
         id="g6839" />
      <g
         id="g6841" />
      <g
         id="g6843" />
    </g>
  </g>
</svg>
