<?xml version="1.0" encoding="UTF-8" standalone="no"?>
<!-- Created with Inkscape (http://www.inkscape.org/) -->

<svg
   xmlns:dc="http://purl.org/dc/elements/1.1/"
   xmlns:cc="http://creativecommons.org/ns#"
   xmlns:rdf="http://www.w3.org/1999/02/22-rdf-syntax-ns#"
   xmlns:svg="http://www.w3.org/2000/svg"
   xmlns="http://www.w3.org/2000/svg"
   xmlns:sodipodi="http://sodipodi.sourceforge.net/DTD/sodipodi-0.dtd"
   xmlns:inkscape="http://www.inkscape.org/namespaces/inkscape"
   width="400"
   height="300"
   viewBox="0 0 374.99998 281.24999"
   id="svg2"
   version="1.1"
   inkscape:version="0.92.1 r15371"
   sodipodi:docname="cms_bridge.svg"
   inkscape:export-filename="C:\Users\ohmsh\Documents\justin_fra\lab_branding\final\emaprLogoFit5buffer.png"
   inkscape:export-xdpi="90"
   inkscape:export-ydpi="90">
  <defs
     id="defs4">
    <marker
       inkscape:stockid="Arrow2Mend"
       orient="auto"
       refY="0"
       refX="0"
       id="Arrow2Mend"
       style="overflow:visible"
       inkscape:isstock="true">
      <path
         id="path5102"
         style="fill:#000000;fill-opacity:1;fill-rule:evenodd;stroke:#000000;stroke-width:0.625;stroke-linejoin:round;stroke-opacity:1"
         d="M 8.7185878,4.0337352 -2.2072895,0.01601326 8.7185884,-4.0017078 c -1.7454984,2.3720609 -1.7354408,5.6174519 -6e-7,8.035443 z"
         transform="scale(-0.6)"
         inkscape:connector-curvature="0" />
    </marker>
    <filter
       inkscape:collect="always"
       style="color-interpolation-filters:sRGB"
       id="filter4888"
       x="-0.012"
       width="1.024"
       y="-0.012"
       height="1.024">
      <feGaussianBlur
         inkscape:collect="always"
         stdDeviation="1.2613459"
         id="feGaussianBlur4890" />
    </filter>
  </defs>
  <sodipodi:namedview
     id="base"
     pagecolor="#ffffff"
     bordercolor="#666666"
     borderopacity="1.0"
     inkscape:pageopacity="0.0"
     inkscape:pageshadow="2"
     inkscape:zoom="1.8397262"
     inkscape:cx="143.05697"
     inkscape:cy="183.58016"
     inkscape:document-units="px"
     inkscape:current-layer="layer1"
     showgrid="false"
     inkscape:window-width="1920"
     inkscape:window-height="1137"
     inkscape:window-x="-8"
     inkscape:window-y="-8"
     inkscape:window-maximized="1"
     inkscape:snap-smooth-nodes="true"
     inkscape:snap-object-midpoints="true"
     inkscape:snap-global="false"
     inkscape:object-nodes="true"
     units="px"
     inkscape:showpageshadow="false" />
  <metadata
     id="metadata7">
    <rdf:RDF>
      <cc:Work
         rdf:about="">
        <dc:format>image/svg+xml</dc:format>
        <dc:type
           rdf:resource="http://purl.org/dc/dcmitype/StillImage" />
        <dc:title />
      </cc:Work>
    </rdf:RDF>
  </metadata>
  <g
     inkscape:label="Layer 1"
     inkscape:groupmode="layer"
     id="layer1"
     transform="translate(0,-771.11224)">
    <g
       id="g4674"
       style="opacity:0.418;filter:url(#filter4888)">
      <circle
         r="126.13459"
         cy="911.73724"
         cx="187.49998"
         id="path4191"
         style="fill:#59b0d3;fill-opacity:1;stroke:none;stroke-width:10.23081207;stroke-linejoin:round;stroke-miterlimit:4;stroke-dasharray:none;stroke-dashoffset:0;stroke-opacity:1" />
      <path
         id="circle4194"
         d="m 165.74668,787.50833 a 126.13459,126.13459 0 0 0 -80.353026,50.38086 c -1.263928,3.72629 -1.405109,7.64578 -1.035641,11.65527 0.660258,6.31042 3.599391,13.09497 8.843992,16.84204 3.944001,1.22689 5.697239,5.53452 8.666265,8.16895 4.57378,1.22612 8.34531,3.48804 10.51879,7.62377 3.02952,3.63043 5.123,7.7694 7.8374,11.5647 4.49176,6.68828 13.07053,5.98292 20.08228,7.37427 8.45515,3.55066 15.21253,10.22334 23.65918,13.91626 6.862,4.62074 14.26064,7.42744 22.69189,8.10229 3.83813,1.91332 4.97618,7.26853 1.8252,10.30176 -4.92315,3.59772 -2.34192,10.15257 -5.20728,14.86816 1.95351,7.68111 8.06292,13.37522 12.573,19.65845 4.54273,3.09457 9.67593,7.12216 10.41797,13.00878 0.495,7.50772 -2.56788,14.88695 -2.20972,22.48851 0.95538,5.7883 -2.68894,10.8615 -3.95459,16.0764 1.16375,5.1636 0.38837,10.3645 1.03735,15.4834 0.0235,0.7899 0.2011,1.4074 0.47681,1.9038 a 126.13459,126.13459 0 0 0 11.052,-1.726 c 4.77978,-4.5382 4.12727,-13.3321 10.28467,-17.1001 3.17962,-0.8407 6.65555,-2.9909 8.20654,-6.4856 2.86146,-0.7418 7.16524,0.4692 8.70556,-3.0659 5.49261,-6.3967 9.01512,-14.30319 15.57398,-19.76103 3.16156,-2.06518 5.92755,-4.30607 8.44922,-7.17432 5.66211,-3.93638 1.27694,-12.19825 5.90283,-16.56005 3.80363,-4.13227 9.21587,-9.41804 6.08398,-15.45263 -2.57782,-3.24699 -7.50571,-4.3969 -11.5271,-5.33888 -6.58092,-2.09124 -15.48889,-1.20058 -19.35424,-7.98608 -0.0239,-3.85379 -1.15458,-8.69871 -5.94898,-8.46118 -3.0556,-2.26191 -7.05339,-1.86221 -9.81128,-4.41602 -7.19141,-2.97888 -14.26538,-7.82219 -22.45434,-7.16406 -5.21782,-1.54792 -10.03056,0.85235 -14.44263,3.47779 -4.72783,-1.90417 -10.27747,-2.16978 -13.84277,-6.20361 -3.44771,-2.72517 -7.18437,-5.06194 -8.91235,-9.35669 -0.88664,-2.59996 4.0798,-7.39171 0.875,-8.86108 -3.37301,-1.08317 -12.08218,1.66228 -12.38843,-3.70851 -2.58644,-6.35743 2.60328,-13.06418 8.75,-14.76391 3.38667,-1.25123 7.95767,-2.81123 10.98877,-0.54346 2.22868,1.4792 4.11088,9.79481 6.67359,7.94678 0.43713,-4.58238 -1.71962,-12.51949 2.98046,-15.68164 3.07534,-1.84305 6.78388,-4.16455 5.39356,-8.3501 1.41793,-5.65466 6.40015,-9.85735 10.86401,-13.35741 2.82266,-4.12098 7.6555,-2.39135 11.72192,-2.88819 6.06415,2.16799 10.76217,-8.04074 17.69311,-7.87158 5.95485,0.48556 8.29087,1.10391 -0.9519,-9.01661 -0.46992,-3.74781 -0.69745,-8.19502 -4.375,-10.312 -5.72337,-2.69288 -6.22303,-8.66848 -10.15649,-12.96949 -6.47288,2.25342 -11.73992,1.1013 -16.15161,-3.16332 -1.62079,-3.88782 -10.20392,-4.9411 -11.46045,-0.57594 -2.04516,4.07688 3.36623,7.89672 2.07812,11.77662 -1.70404,3.5094 -0.66205,9.46646 -4.87402,11.59033 -3.8745,5.05869 -7.40657,0.74639 -5.37305,-4.15796 -7.16012,-1.94092 -13.10516,-3.97324 -19.78319,-7.15723 -4.34679,-1.30775 -7.70727,-4.95813 -6.46681,-9.71899 l 16.24903,-13.125 -3.31543,-1.32618 c -0.93387,-0.17743 -1.8699,-0.31023 -2.80615,-0.40844 z"
         style="fill:#76d03b;fill-opacity:1;stroke:none;stroke-width:10.23081207;stroke-linejoin:round;stroke-miterlimit:4;stroke-dasharray:none;stroke-dashoffset:0;stroke-opacity:1"
         inkscape:connector-curvature="0" />
    </g>
    <path
       inkscape:connector-curvature="0"
       id="path5339"
       d="m 150.45867,935.46231 18.52065,32.07837 10.81274,18.72713 v 22.97429 h 15.41388 v -22.97037 l 10.8147,-18.73105 18.52068,-32.07837 h -37.04134 z"
       style="fill:#5b6875;fill-opacity:1;stroke:none;stroke-width:1.29735243;stroke-linecap:round;stroke-linejoin:miter;stroke-miterlimit:4;stroke-dasharray:none;stroke-opacity:1" />
    <g
       style="fill:#76d03b;fill-opacity:1;stroke:none;stroke-opacity:0.76078431"
       transform="matrix(0.23213525,0,0,0.23213525,268.21226,776.65974)"
       id="g5345">
      <path
         style="fill:#76d03b;fill-opacity:1;stroke:none;stroke-width:1.40976882;stroke-linejoin:round;stroke-miterlimit:4;stroke-dasharray:none;stroke-dashoffset:0;stroke-opacity:0.76078431"
         d="m -358.80384,710.16071 -2.72988,10.25774 a 52.161881,52.534286 0 0 0 -3.79322,0.0246 52.161881,52.534286 0 0 0 -3.78679,0.36033 l -3.82291,-9.79975 a 62.848816,62.905678 55.671624 0 0 -17.50143,5.72736 l 2.73315,10.27802 a 52.161881,52.534286 0 0 0 -6.33287,4.18835 l -8.34321,-6.69506 a 62.848816,62.905678 55.671624 0 0 -12.34345,13.71542 l 7.60898,7.6607 a 52.161881,52.534286 0 0 0 -3.36745,6.84297 l -10.83417,-1.63777 a 62.848816,62.905678 55.671624 0 0 -3.80382,18.08111 l 10.62986,2.86933 a 52.161881,52.534286 0 0 0 0.0214,3.81631 52.161881,52.534286 0 0 0 0.35931,3.81652 l -10.16164,4.01993 a 62.848816,62.905678 55.671624 0 0 5.80679,17.53795 l 10.5122,-2.83648 a 52.161881,52.534286 0 0 0 4.1614,6.37793 l -6.73587,8.51844 a 62.848816,62.905678 55.671624 0 0 13.80011,12.22205 l 7.51299,-7.5653 a 52.161881,52.534286 0 0 0 6.7943,3.3887 l -1.58047,10.59911 a 62.848816,62.905678 55.671624 0 0 18.02767,3.69395 l 2.72729,-10.25483 a 52.161881,52.534286 0 0 0 3.7933,-0.0232 52.161881,52.534286 0 0 0 3.78663,-0.36309 l 3.82291,9.79976 a 62.848816,62.905678 55.671624 0 0 17.50159,-5.7246 l -2.73322,-10.27938 a 52.161881,52.534286 0 0 0 6.33553,-4.1899 l 8.34321,6.69505 a 62.848816,62.905678 55.671624 0 0 12.34342,-13.71543 l -7.60912,-7.66347 a 52.161881,52.534286 0 0 0 3.36487,-6.84005 l 10.83691,1.63761 a 62.848816,62.905678 55.671624 0 0 3.80109,-18.08095 l -10.62986,-2.86931 a 52.161881,52.534286 0 0 0 -0.0215,-3.81771 52.161881,52.534286 0 0 0 -0.35907,-3.81237 l 10.16285,-4.02278 a 62.848816,62.905678 55.671624 0 0 -5.80541,-17.53805 l -10.51768,2.8368 a 52.161881,52.534286 0 0 0 -4.15868,-6.37951 l 6.73868,-8.51722 a 62.848816,62.905678 55.671624 0 0 -13.80277,-12.22052 l -7.51292,7.5667 a 52.161881,52.534286 0 0 0 -6.79428,-3.38873 l 1.5803,-10.60186 a 62.848816,62.905678 55.671624 0 0 -18.025,-3.69548 z m -6.03672,18.9673 a 43.524071,43.834806 0 0 1 45.90599,41.29557 43.524071,43.834806 0 0 1 -41.00419,46.23382 43.524071,43.834806 0 0 1 -45.90608,-41.29693 43.524071,43.834806 0 0 1 41.00428,-46.23246 z"
         id="path5341"
         inkscape:connector-curvature="0"
         inkscape:export-xdpi="90"
         inkscape:export-ydpi="90" />
      <path
         id="path5343"
         d="m -269.88007,701.29495 -1.60739,4.91408 a 25.414564,25.593923 0 0 0 -1.84591,-0.0929 25.414564,25.593923 0 0 0 -1.8519,0.0707 l -1.59268,-4.87234 a 30.641125,30.627086 0 0 0 -8.66963,2.30228 l 1.04955,5.07487 a 25.414564,25.593923 0 0 0 -3.19475,1.86229 l -3.87616,-3.48708 a 30.641125,30.627086 0 0 0 -6.37813,6.3303 l 3.4927,3.93649 a 25.414564,25.593923 0 0 0 -1.82452,3.23545 l -5.2257,-1.09598 a 30.641125,30.627086 0 0 0 -2.34294,8.68977 l 5.09274,1.68939 a 25.414564,25.593923 0 0 0 -0.0934,1.85689 25.414564,25.593923 0 0 0 0.0709,1.86633 l -5.05265,1.67458 a 30.641125,30.627086 0 0 0 2.34694,8.69111 l 5.19096,-1.08926 a 25.414564,25.593923 0 0 0 1.85056,3.2173 l -3.50873,3.95735 a 30.641125,30.627086 0 0 0 6.38014,6.32624 l 3.86079,-3.47226 a 25.414564,25.593923 0 0 0 3.21279,1.83604 l -1.05756,5.11188 a 30.641125,30.627086 0 0 0 8.66896,2.29488 l 1.60604,-4.91273 a 25.414564,25.593923 0 0 0 1.8459,0.0936 25.414564,25.593923 0 0 0 1.85191,-0.0721 l 1.59269,4.87234 a 30.641125,30.627086 0 0 0 8.66962,-2.30094 l -1.04954,-5.07553 a 25.414564,25.593923 0 0 0 3.19607,-1.86297 l 3.87619,3.4871 a 30.641125,30.627086 0 0 0 6.3781,-6.3303 l -3.49269,-3.93785 a 25.414564,25.593923 0 0 0 1.82319,-3.2341 l 5.22703,1.09598 a 30.641125,30.627086 0 0 0 2.34161,-8.68977 l -5.09276,-1.68937 a 25.414564,25.593923 0 0 0 0.0935,-1.85759 25.414564,25.593923 0 0 0 -0.0709,-1.86431 l 5.05333,-1.67591 a 30.641125,30.627086 0 0 0 -2.34629,-8.69113 l -5.19362,1.08925 a 25.414564,25.593923 0 0 0 -1.84923,-3.21796 l 3.51007,-3.95667 a 30.641125,30.627086 0 0 0 -6.38146,-6.32558 l -3.86083,3.47293 a 25.414564,25.593923 0 0 0 -3.21277,-1.83604 l 1.05757,-5.11321 a 30.641125,30.627086 0 0 0 -8.66763,-2.29557 z m -3.4533,9.05912 a 21.206009,21.355666 0 0 1 21.2061,21.35508 21.206009,21.355666 0 0 1 -21.2061,21.35573 21.206009,21.355666 0 0 1 -21.20605,-21.35573 21.206009,21.355666 0 0 1 21.20605,-21.35508 z"
         style="fill:#76d03b;fill-opacity:1;stroke:none;stroke-width:0.68684644;stroke-linejoin:round;stroke-miterlimit:4;stroke-dasharray:none;stroke-dashoffset:0;stroke-opacity:0.76078431"
         inkscape:connector-curvature="0"
         inkscape:export-xdpi="90"
         inkscape:export-ydpi="90" />
    </g>
    <g
       id="g5590"
       transform="matrix(0.87541625,0,0,0.87541625,-32.291931,126.10928)">
      <path
         style="fill:none;stroke:#d62851;stroke-width:4.7090621;stroke-linecap:round;stroke-linejoin:round;stroke-miterlimit:4;stroke-dasharray:none;stroke-opacity:1"
         d="m 294.14731,835.02672 -28.44825,10.64752 v 27.16953"
         id="path5347"
         inkscape:connector-curvature="0" />
      <path
         inkscape:connector-curvature="0"
         id="path5349"
         d="M 294.14731,910.66083 265.69906,900.01331 V 872.84377"
         style="fill:none;stroke:#d62851;stroke-width:4.7090621;stroke-linecap:round;stroke-linejoin:round;stroke-miterlimit:4;stroke-dasharray:none;stroke-opacity:1" />
      <path
         inkscape:connector-curvature="0"
         id="path5351"
         d="m 207.99535,835.02672 28.44825,10.64752 v 27.16953"
         style="fill:none;stroke:#d62851;stroke-width:4.7090621;stroke-linecap:round;stroke-linejoin:round;stroke-miterlimit:4;stroke-dasharray:none;stroke-opacity:1" />
      <path
         style="fill:none;stroke:#d62851;stroke-width:4.7090621;stroke-linecap:round;stroke-linejoin:round;stroke-miterlimit:4;stroke-dasharray:none;stroke-opacity:1"
         d="m 207.99536,910.66082 28.44825,-10.64751 v -27.16954"
         id="path5353"
         inkscape:connector-curvature="0" />
    </g>
    <text
       xml:space="preserve"
       style="font-style:normal;font-variant:normal;font-weight:bold;font-stretch:normal;font-size:6.62482786px;line-height:0%;font-family:'Courier New';-inkscape-font-specification:'Courier New, Bold';text-align:start;letter-spacing:0px;word-spacing:0px;writing-mode:lr-tb;text-anchor:start;fill:#4b4b4b;fill-opacity:1;stroke:none;stroke-width:0.55206901px;stroke-linecap:butt;stroke-linejoin:miter;stroke-opacity:1"
       x="163.47421"
       y="831.87506"
       id="text5358"><tspan
         style="font-size:13.80172443px;line-height:1.25;fill:#4b4b4b;fill-opacity:1;stroke-width:0.55206901px"
         sodipodi:role="line"
         id="tspan5356"
         x="163.47421"
         y="831.87506">1</tspan></text>
    <text
       xml:space="preserve"
       style="font-style:normal;font-variant:normal;font-weight:bold;font-stretch:normal;font-size:6.62482786px;line-height:0%;font-family:'Courier New';-inkscape-font-specification:'Courier New, Bold';text-align:start;letter-spacing:0px;word-spacing:0px;writing-mode:lr-tb;text-anchor:start;fill:#4b4b4b;fill-opacity:1;stroke:none;stroke-width:0.55206901px;stroke-linecap:butt;stroke-linejoin:miter;stroke-opacity:1"
       x="163.47421"
       y="842.91644"
       id="text5362"><tspan
         style="font-size:13.80172443px;line-height:1.25;fill:#4b4b4b;fill-opacity:1;stroke-width:0.55206901px"
         sodipodi:role="line"
         id="tspan5360"
         x="163.47421"
         y="842.91644">1</tspan></text>
    <text
       xml:space="preserve"
       style="font-style:normal;font-variant:normal;font-weight:bold;font-stretch:normal;font-size:6.62482786px;line-height:0%;font-family:'Courier New';-inkscape-font-specification:'Courier New, Bold';text-align:start;letter-spacing:0px;word-spacing:0px;writing-mode:lr-tb;text-anchor:start;fill:#4b4b4b;fill-opacity:1;stroke:none;stroke-width:0.55206901px;stroke-linecap:butt;stroke-linejoin:miter;stroke-opacity:1"
       x="173.41145"
       y="831.87506"
       id="text5366"><tspan
         sodipodi:role="line"
         id="tspan5364"
         x="173.41145"
         y="831.87506"
         style="font-style:normal;font-variant:normal;font-weight:bold;font-stretch:normal;font-size:13.80172443px;line-height:125%;font-family:'Courier New';-inkscape-font-specification:'Courier New, Bold';text-align:start;writing-mode:lr-tb;text-anchor:start;fill:#4b4b4b;fill-opacity:1;stroke-width:0.55206901px">0</tspan></text>
    <text
       xml:space="preserve"
       style="font-style:normal;font-variant:normal;font-weight:bold;font-stretch:normal;font-size:6.62482786px;line-height:0%;font-family:'Courier New';-inkscape-font-specification:'Courier New, Bold';text-align:start;letter-spacing:0px;word-spacing:0px;writing-mode:lr-tb;text-anchor:start;fill:#4b4b4b;fill-opacity:1;stroke:none;stroke-width:0.55206901px;stroke-linecap:butt;stroke-linejoin:miter;stroke-opacity:1"
       x="173.41145"
       y="842.91644"
       id="text5370"><tspan
         style="font-size:13.80172443px;line-height:1.25;fill:#4b4b4b;fill-opacity:1;stroke-width:0.55206901px"
         sodipodi:role="line"
         id="tspan5368"
         x="173.41145"
         y="842.91644">1</tspan></text>
    <text
       xml:space="preserve"
       style="font-style:normal;font-variant:normal;font-weight:bold;font-stretch:normal;font-size:6.62482786px;line-height:0%;font-family:'Courier New';-inkscape-font-specification:'Courier New, Bold';text-align:start;letter-spacing:0px;word-spacing:0px;writing-mode:lr-tb;text-anchor:start;fill:#4b4b4b;fill-opacity:1;stroke:none;stroke-width:0.55206901px;stroke-linecap:butt;stroke-linejoin:miter;stroke-opacity:1"
       x="183.34868"
       y="831.87506"
       id="text5374"><tspan
         style="font-size:13.80172443px;line-height:1.25;fill:#4b4b4b;fill-opacity:1;stroke-width:0.55206901px"
         sodipodi:role="line"
         id="tspan5372"
         x="183.34868"
         y="831.87506">1</tspan></text>
    <text
       xml:space="preserve"
       style="font-style:normal;font-variant:normal;font-weight:bold;font-stretch:normal;font-size:6.62482786px;line-height:0%;font-family:'Courier New';-inkscape-font-specification:'Courier New, Bold';text-align:start;letter-spacing:0px;word-spacing:0px;writing-mode:lr-tb;text-anchor:start;fill:#4b4b4b;fill-opacity:1;stroke:none;stroke-width:0.55206901px;stroke-linecap:butt;stroke-linejoin:miter;stroke-opacity:1"
       x="183.34868"
       y="842.91644"
       id="text5378"><tspan
         sodipodi:role="line"
         id="tspan5376"
         x="183.34868"
         y="842.91644"
         style="font-style:normal;font-variant:normal;font-weight:bold;font-stretch:normal;font-size:13.80172443px;line-height:125%;font-family:'Courier New';-inkscape-font-specification:'Courier New, Bold';text-align:start;writing-mode:lr-tb;text-anchor:start;fill:#4b4b4b;fill-opacity:1;stroke-width:0.55206901px">0</tspan></text>
    <text
       xml:space="preserve"
       style="font-style:normal;font-variant:normal;font-weight:bold;font-stretch:normal;font-size:6.62482786px;line-height:0%;font-family:'Courier New';-inkscape-font-specification:'Courier New, Bold';text-align:start;letter-spacing:0px;word-spacing:0px;writing-mode:lr-tb;text-anchor:start;fill:#4b4b4b;fill-opacity:1;stroke:none;stroke-width:0.55206901px;stroke-linecap:butt;stroke-linejoin:miter;stroke-opacity:1"
       x="193.28593"
       y="831.87506"
       id="text5382"><tspan
         sodipodi:role="line"
         id="tspan5380"
         x="193.28593"
         y="831.87506"
         style="font-style:normal;font-variant:normal;font-weight:bold;font-stretch:normal;font-size:13.80172443px;line-height:125%;font-family:'Courier New';-inkscape-font-specification:'Courier New, Bold';text-align:start;writing-mode:lr-tb;text-anchor:start;fill:#4b4b4b;fill-opacity:1;stroke-width:0.55206901px">0</tspan></text>
    <text
       xml:space="preserve"
       style="font-style:normal;font-variant:normal;font-weight:bold;font-stretch:normal;font-size:6.62482786px;line-height:0%;font-family:'Courier New';-inkscape-font-specification:'Courier New, Bold';text-align:start;letter-spacing:0px;word-spacing:0px;writing-mode:lr-tb;text-anchor:start;fill:#4b4b4b;fill-opacity:1;stroke:none;stroke-width:0.55206901px;stroke-linecap:butt;stroke-linejoin:miter;stroke-opacity:1"
       x="193.28593"
       y="842.91644"
       id="text5386"><tspan
         sodipodi:role="line"
         id="tspan5384"
         x="193.28593"
         y="842.91644"
         style="font-style:normal;font-variant:normal;font-weight:bold;font-stretch:normal;font-size:13.80172443px;line-height:125%;font-family:'Courier New';-inkscape-font-specification:'Courier New, Bold';text-align:start;writing-mode:lr-tb;text-anchor:start;fill:#4b4b4b;fill-opacity:1;stroke-width:0.55206901px">0</tspan></text>
    <text
       xml:space="preserve"
       style="font-style:normal;font-variant:normal;font-weight:bold;font-stretch:normal;font-size:6.62482786px;line-height:0%;font-family:'Courier New';-inkscape-font-specification:'Courier New, Bold';text-align:start;letter-spacing:0px;word-spacing:0px;writing-mode:lr-tb;text-anchor:start;fill:#4b4b4b;fill-opacity:1;stroke:none;stroke-width:0.55206901px;stroke-linecap:butt;stroke-linejoin:miter;stroke-opacity:1"
       x="203.22318"
       y="831.87506"
       id="text5390"><tspan
         style="font-size:13.80172443px;line-height:1.25;fill:#4b4b4b;fill-opacity:1;stroke-width:0.55206901px"
         y="831.87506"
         x="203.22318"
         sodipodi:role="line"
         id="tspan5388">1</tspan></text>
    <text
       id="text5394"
       y="842.91644"
       x="203.22318"
       style="font-style:normal;font-variant:normal;font-weight:bold;font-stretch:normal;font-size:6.62482786px;line-height:0%;font-family:'Courier New';-inkscape-font-specification:'Courier New, Bold';text-align:start;letter-spacing:0px;word-spacing:0px;writing-mode:lr-tb;text-anchor:start;fill:#4b4b4b;fill-opacity:1;stroke:none;stroke-width:0.55206901px;stroke-linecap:butt;stroke-linejoin:miter;stroke-opacity:1"
       xml:space="preserve"><tspan
         style="font-style:normal;font-variant:normal;font-weight:bold;font-stretch:normal;font-size:13.80172443px;line-height:125%;font-family:'Courier New';-inkscape-font-specification:'Courier New, Bold';text-align:start;writing-mode:lr-tb;text-anchor:start;fill:#4b4b4b;fill-opacity:1;stroke-width:0.55206901px"
         y="842.91644"
         x="203.22318"
         id="tspan5392"
         sodipodi:role="line">0</tspan></text>
    <text
       id="text5398"
       y="853.95776"
       x="163.47421"
       style="font-style:normal;font-variant:normal;font-weight:bold;font-stretch:normal;font-size:6.62482786px;line-height:0%;font-family:'Courier New';-inkscape-font-specification:'Courier New, Bold';text-align:start;letter-spacing:0px;word-spacing:0px;writing-mode:lr-tb;text-anchor:start;fill:#4b4b4b;fill-opacity:1;stroke:none;stroke-width:0.55206901px;stroke-linecap:butt;stroke-linejoin:miter;stroke-opacity:1"
       xml:space="preserve"><tspan
         style="font-size:13.80172443px;line-height:1.25;fill:#4b4b4b;fill-opacity:1;stroke-width:0.55206901px"
         y="853.95776"
         x="163.47421"
         id="tspan5396"
         sodipodi:role="line">1</tspan></text>
    <text
       id="text5402"
       y="853.95776"
       x="173.41145"
       style="font-style:normal;font-variant:normal;font-weight:bold;font-stretch:normal;font-size:6.62482786px;line-height:0%;font-family:'Courier New';-inkscape-font-specification:'Courier New, Bold';text-align:start;letter-spacing:0px;word-spacing:0px;writing-mode:lr-tb;text-anchor:start;fill:#4b4b4b;fill-opacity:1;stroke:none;stroke-width:0.55206901px;stroke-linecap:butt;stroke-linejoin:miter;stroke-opacity:1"
       xml:space="preserve"><tspan
         style="font-size:13.80172443px;line-height:1.25;fill:#4b4b4b;fill-opacity:1;stroke-width:0.55206901px"
         y="853.95776"
         x="173.41145"
         id="tspan5400"
         sodipodi:role="line">0</tspan></text>
    <text
       id="text5406"
       y="853.95776"
       x="183.34868"
       style="font-style:normal;font-variant:normal;font-weight:bold;font-stretch:normal;font-size:6.62482786px;line-height:0%;font-family:'Courier New';-inkscape-font-specification:'Courier New, Bold';text-align:start;letter-spacing:0px;word-spacing:0px;writing-mode:lr-tb;text-anchor:start;fill:#4b4b4b;fill-opacity:1;stroke:none;stroke-width:0.55206901px;stroke-linecap:butt;stroke-linejoin:miter;stroke-opacity:1"
       xml:space="preserve"><tspan
         style="font-size:13.80172443px;line-height:1.25;fill:#4b4b4b;fill-opacity:1;stroke-width:0.55206901px"
         y="853.95776"
         x="183.34868"
         id="tspan5404"
         sodipodi:role="line">1</tspan></text>
    <text
       id="text5410"
       y="853.95776"
       x="193.28593"
       style="font-style:normal;font-variant:normal;font-weight:bold;font-stretch:normal;font-size:6.62482786px;line-height:0%;font-family:'Courier New';-inkscape-font-specification:'Courier New, Bold';text-align:start;letter-spacing:0px;word-spacing:0px;writing-mode:lr-tb;text-anchor:start;fill:#4b4b4b;fill-opacity:1;stroke:none;stroke-width:0.55206901px;stroke-linecap:butt;stroke-linejoin:miter;stroke-opacity:1"
       xml:space="preserve"><tspan
         style="font-style:normal;font-variant:normal;font-weight:bold;font-stretch:normal;font-size:13.80172443px;line-height:125%;font-family:'Courier New';-inkscape-font-specification:'Courier New, Bold';text-align:start;writing-mode:lr-tb;text-anchor:start;fill:#4b4b4b;fill-opacity:1;stroke-width:0.55206901px"
         y="853.95776"
         x="193.28593"
         id="tspan5408"
         sodipodi:role="line">0</tspan></text>
    <text
       xml:space="preserve"
       style="font-style:normal;font-variant:normal;font-weight:bold;font-stretch:normal;font-size:6.62482786px;line-height:0%;font-family:'Courier New';-inkscape-font-specification:'Courier New, Bold';text-align:start;letter-spacing:0px;word-spacing:0px;writing-mode:lr-tb;text-anchor:start;fill:#4b4b4b;fill-opacity:1;stroke:none;stroke-width:0.55206901px;stroke-linecap:butt;stroke-linejoin:miter;stroke-opacity:1"
       x="203.22318"
       y="853.95776"
       id="text5414"><tspan
         sodipodi:role="line"
         id="tspan5412"
         x="203.22318"
         y="853.95776"
         style="font-style:normal;font-variant:normal;font-weight:bold;font-stretch:normal;font-size:13.80172443px;line-height:125%;font-family:'Courier New';-inkscape-font-specification:'Courier New, Bold';text-align:start;writing-mode:lr-tb;text-anchor:start;fill:#4b4b4b;fill-opacity:1;stroke-width:0.55206901px">0</tspan></text>
    <text
       id="text5418"
       y="831.87506"
       x="153.62578"
       style="font-style:normal;font-variant:normal;font-weight:bold;font-stretch:normal;font-size:6.62482786px;line-height:0%;font-family:'Courier New';-inkscape-font-specification:'Courier New, Bold';text-align:start;letter-spacing:0px;word-spacing:0px;writing-mode:lr-tb;text-anchor:start;fill:#4b4b4b;fill-opacity:1;stroke:none;stroke-width:0.55206901px;stroke-linecap:butt;stroke-linejoin:miter;stroke-opacity:1"
       xml:space="preserve"><tspan
         y="831.87506"
         x="153.62578"
         id="tspan5416"
         sodipodi:role="line"
         style="font-size:13.80172443px;line-height:1.25;fill:#4b4b4b;fill-opacity:1;stroke-width:0.55206901px">1</tspan></text>
    <text
       id="text5422"
       y="842.91644"
       x="153.62578"
       style="font-style:normal;font-variant:normal;font-weight:bold;font-stretch:normal;font-size:6.62482786px;line-height:0%;font-family:'Courier New';-inkscape-font-specification:'Courier New, Bold';text-align:start;letter-spacing:0px;word-spacing:0px;writing-mode:lr-tb;text-anchor:start;fill:#4b4b4b;fill-opacity:1;stroke:none;stroke-width:0.55206901px;stroke-linecap:butt;stroke-linejoin:miter;stroke-opacity:1"
       xml:space="preserve"><tspan
         y="842.91644"
         x="153.62578"
         id="tspan5420"
         sodipodi:role="line"
         style="font-size:13.80172443px;line-height:1.25;fill:#4b4b4b;fill-opacity:1;stroke-width:0.55206901px">1</tspan></text>
    <text
       id="text5426"
       y="831.87506"
       x="213.07159"
       style="font-style:normal;font-variant:normal;font-weight:bold;font-stretch:normal;font-size:6.62482786px;line-height:0%;font-family:'Courier New';-inkscape-font-specification:'Courier New, Bold';text-align:start;letter-spacing:0px;word-spacing:0px;writing-mode:lr-tb;text-anchor:start;fill:#4b4b4b;fill-opacity:1;stroke:none;stroke-width:0.55206901px;stroke-linecap:butt;stroke-linejoin:miter;stroke-opacity:1"
       xml:space="preserve"><tspan
         id="tspan5424"
         sodipodi:role="line"
         x="213.07159"
         y="831.87506"
         style="font-size:13.80172443px;line-height:1.25;fill:#4b4b4b;fill-opacity:1;stroke-width:0.55206901px">1</tspan></text>
    <text
       xml:space="preserve"
       style="font-style:normal;font-variant:normal;font-weight:bold;font-stretch:normal;font-size:6.62482786px;line-height:0%;font-family:'Courier New';-inkscape-font-specification:'Courier New, Bold';text-align:start;letter-spacing:0px;word-spacing:0px;writing-mode:lr-tb;text-anchor:start;fill:#4b4b4b;fill-opacity:1;stroke:none;stroke-width:0.55206901px;stroke-linecap:butt;stroke-linejoin:miter;stroke-opacity:1"
       x="213.07159"
       y="842.91644"
       id="text5430"><tspan
         sodipodi:role="line"
         id="tspan5428"
         x="213.07159"
         y="842.91644"
         style="font-style:normal;font-variant:normal;font-weight:bold;font-stretch:normal;font-size:13.80172443px;line-height:125%;font-family:'Courier New';-inkscape-font-specification:'Courier New, Bold';text-align:start;writing-mode:lr-tb;text-anchor:start;fill:#4b4b4b;fill-opacity:1;stroke-width:0.55206901px">0</tspan></text>
    <text
       id="text5434"
       y="865.0752"
       x="183.34868"
       style="font-style:normal;font-variant:normal;font-weight:bold;font-stretch:normal;font-size:6.62482786px;line-height:0%;font-family:'Courier New';-inkscape-font-specification:'Courier New, Bold';text-align:start;letter-spacing:0px;word-spacing:0px;writing-mode:lr-tb;text-anchor:start;fill:#4b4b4b;fill-opacity:1;stroke:none;stroke-width:0.55206901px;stroke-linecap:butt;stroke-linejoin:miter;stroke-opacity:1"
       xml:space="preserve"><tspan
         style="font-style:normal;font-variant:normal;font-weight:bold;font-stretch:normal;font-size:13.80172443px;line-height:125%;font-family:'Courier New';-inkscape-font-specification:'Courier New, Bold';text-align:start;writing-mode:lr-tb;text-anchor:start;fill:#4b4b4b;fill-opacity:1;stroke-width:0.55206901px"
         y="865.0752"
         x="183.34868"
         id="tspan5432"
         sodipodi:role="line">0</tspan></text>
    <text
       xml:space="preserve"
       style="font-style:normal;font-variant:normal;font-weight:bold;font-stretch:normal;font-size:6.62482786px;line-height:0%;font-family:'Courier New';-inkscape-font-specification:'Courier New, Bold';text-align:start;letter-spacing:0px;word-spacing:0px;writing-mode:lr-tb;text-anchor:start;fill:#4b4b4b;fill-opacity:1;stroke:none;stroke-width:0.55206901px;stroke-linecap:butt;stroke-linejoin:miter;stroke-opacity:1"
       x="183.34868"
       y="876.11652"
       id="text5438"><tspan
         sodipodi:role="line"
         id="tspan5436"
         x="183.34868"
         y="876.11652"
         style="font-size:13.80172443px;line-height:1.25;fill:#4b4b4b;fill-opacity:1;stroke-width:0.55206901px">1</tspan></text>
    <text
       id="text4724"
       y="887.04407"
       x="183.34869"
       style="font-style:normal;font-variant:normal;font-weight:bold;font-stretch:normal;font-size:6.62482786px;line-height:0%;font-family:'Courier New';-inkscape-font-specification:'Courier New, Bold';text-align:start;letter-spacing:0px;word-spacing:0px;writing-mode:lr-tb;text-anchor:start;fill:#4b4b4b;fill-opacity:1;stroke:none;stroke-width:0.55206901px;stroke-linecap:butt;stroke-linejoin:miter;stroke-opacity:1"
       xml:space="preserve"><tspan
         y="887.04407"
         x="183.34869"
         id="tspan4722"
         sodipodi:role="line"
         style="font-size:13.80172443px;line-height:1.25;fill:#4b4b4b;fill-opacity:1;stroke-width:0.55206901px">1</tspan></text>
    <text
       id="text4728"
       y="898.08545"
       x="183.35544"
       style="font-style:normal;font-variant:normal;font-weight:bold;font-stretch:normal;font-size:6.62482786px;line-height:0%;font-family:'Courier New';-inkscape-font-specification:'Courier New, Bold';text-align:start;letter-spacing:0px;word-spacing:0px;writing-mode:lr-tb;text-anchor:start;fill:#4b4b4b;fill-opacity:1;stroke:none;stroke-width:0.55206901px;stroke-linecap:butt;stroke-linejoin:miter;stroke-opacity:1"
       xml:space="preserve"><tspan
         style="font-style:normal;font-variant:normal;font-weight:bold;font-stretch:normal;font-size:13.80172443px;line-height:125%;font-family:'Courier New';-inkscape-font-specification:'Courier New, Bold';text-align:start;writing-mode:lr-tb;text-anchor:start;fill:#4b4b4b;fill-opacity:1;stroke-width:0.55206901px"
         y="898.08545"
         x="183.35544"
         id="tspan4726"
         sodipodi:role="line">0</tspan></text>
    <text
       xml:space="preserve"
       style="font-style:normal;font-variant:normal;font-weight:bold;font-stretch:normal;font-size:6.62482786px;line-height:0%;font-family:'Courier New';-inkscape-font-specification:'Courier New, Bold';text-align:start;letter-spacing:0px;word-spacing:0px;writing-mode:lr-tb;text-anchor:start;fill:#4b4b4b;fill-opacity:1;stroke:none;stroke-width:0.55206901px;stroke-linecap:butt;stroke-linejoin:miter;stroke-opacity:1"
       x="183.34869"
       y="909.12677"
       id="text4732"><tspan
         sodipodi:role="line"
         id="tspan4730"
         x="183.34869"
         y="909.12677"
         style="font-size:13.80172443px;line-height:1.25;fill:#4b4b4b;fill-opacity:1;stroke-width:0.55206901px">1</tspan></text>
    <text
       xml:space="preserve"
       style="font-style:normal;font-variant:normal;font-weight:bold;font-stretch:normal;font-size:6.62482786px;line-height:0%;font-family:'Courier New';-inkscape-font-specification:'Courier New, Bold';text-align:start;letter-spacing:0px;word-spacing:0px;writing-mode:lr-tb;text-anchor:start;fill:#4b4b4b;fill-opacity:1;stroke:none;stroke-width:0.55206901px;stroke-linecap:butt;stroke-linejoin:miter;stroke-opacity:1"
       x="183.35544"
       y="920.2442"
       id="text4736"><tspan
         sodipodi:role="line"
         id="tspan4734"
         x="183.35544"
         y="920.2442"
         style="font-style:normal;font-variant:normal;font-weight:bold;font-stretch:normal;font-size:13.80172443px;line-height:125%;font-family:'Courier New';-inkscape-font-specification:'Courier New, Bold';text-align:start;writing-mode:lr-tb;text-anchor:start;fill:#4b4b4b;fill-opacity:1;stroke-width:0.55206901px">0</tspan></text>
    <text
       id="text4740"
       y="931.28552"
       x="183.34869"
       style="font-style:normal;font-variant:normal;font-weight:bold;font-stretch:normal;font-size:6.62482786px;line-height:0%;font-family:'Courier New';-inkscape-font-specification:'Courier New, Bold';text-align:start;letter-spacing:0px;word-spacing:0px;writing-mode:lr-tb;text-anchor:start;fill:#4b4b4b;fill-opacity:1;stroke:none;stroke-width:0.55206901px;stroke-linecap:butt;stroke-linejoin:miter;stroke-opacity:1"
       xml:space="preserve"><tspan
         style="font-size:13.80172443px;line-height:1.25;fill:#4b4b4b;fill-opacity:1;stroke-width:0.55206901px"
         y="931.28552"
         x="183.34869"
         id="tspan4738"
         sodipodi:role="line">1</tspan></text>
    <circle
       r="126.13459"
       cy="911.73724"
       cx="187.49998"
       id="circle4932"
       style="fill:none;fill-opacity:1;stroke:#000000;stroke-width:0.46874998;stroke-linejoin:round;stroke-miterlimit:4;stroke-dasharray:none;stroke-dashoffset:0;stroke-opacity:1;opacity:1" />
  </g>
</svg>
